#N canvas 827 239 527 327 12;
#X obj 93 62 adc~ 1 2;
#X obj 286 62 adc~ 3;
#X obj 63 233 r main_source;
#X obj 133 305 == 2;
#X obj 93 110 utils/sig_mix~;
#X obj 173 62 sig~ 0.5;
#X text 93 33 Stereo input audio is not supported for now.;
#X obj 225 305 == 3;
#X obj 93 356 *~;
#X obj 210 356 *~;
#X obj 797 215 switch~;
#X obj 797 62 r main_source;
#X obj 92 443 +~;
#X obj 598 611 > 0.75;
#X obj 330 775 spigot;
#X obj 330 807 mtof;
#X obj 330 837 s main_audio_freq;
#X obj 797 91 > 1;
#X obj 330 540 sigmund~ -hop 2048 pitch quality;
#X obj 92 540 delwrite~ main_delay_line 300;
#X obj 916 62 r sub_source;
#X obj 916 120 t b f;
#X obj 400 356 *~;
#X obj 517 356 *~;
#X obj 370 233 r sub_source;
#X obj 440 305 == 1;
#X obj 532 305 == 2;
#X obj 400 443 +~;
#X obj 400 479 delwrite~ sub_delay_line 300;
#X obj 330 611 moses 0;
#X obj 330 648 moses 128;
#X obj 916 91 > 0;
#X obj 797 158 max;
#X connect 0 0 4 0;
#X connect 0 1 4 1;
#X connect 1 0 9 0;
#X connect 1 0 23 0;
#X connect 2 0 3 0;
#X connect 2 0 7 0;
#X connect 3 0 8 1;
#X connect 4 0 8 0;
#X connect 4 0 22 0;
#X connect 5 0 4 2;
#X connect 7 0 9 1;
#X connect 8 0 12 0;
#X connect 9 0 12 1;
#X connect 11 0 17 0;
#X connect 12 0 18 0;
#X connect 12 0 19 0;
#X connect 13 0 14 1;
#X connect 14 0 15 0;
#X connect 15 0 16 0;
#X connect 17 0 32 0;
#X connect 18 0 29 0;
#X connect 18 1 13 0;
#X connect 20 0 31 0;
#X connect 21 0 32 0;
#X connect 21 1 32 1;
#X connect 22 0 27 0;
#X connect 23 0 27 1;
#X connect 24 0 25 0;
#X connect 24 0 26 0;
#X connect 25 0 22 1;
#X connect 26 0 23 1;
#X connect 27 0 28 0;
#X connect 29 1 30 0;
#X connect 30 0 14 0;
#X connect 31 0 21 0;
#X connect 32 0 10 0;
