#N canvas 827 239 527 327 12;
#X obj 43 138 ctlin;
#X obj 43 225 pack f f;
#X obj 44 440 / 127;
#X obj 44 532 s global_volume-r;
#X obj 64 186 t b f;
#X text 43 35 Handles MIDI control messages. Responsible for updating both PlugData and Camomile interfaces.;
#X obj 222 440 / 127;
#X obj 222 488 s global_pan-r;
#X obj 43 647 bendin;
#X obj 43 711 - 8192;
#X obj 43 805 t b f;
#X obj 43 872 pow;
#X obj 29 841 2;
#X obj 43 769 / 6;
#X obj 43 740 / 8192;
#X obj 43 1017 s pitch_bend;
#X obj 174 841 loadbang;
#X obj 174 872 1;
#X obj 44 469 * 56;
#X obj 44 498 - 50;
#X obj 44 404 pipe 0;
#X obj 43 682 pipe 0;
#X obj 112 647 r midi_delay_ms;
#X obj 222 404 pipe 0, f 7;
#X obj 212 278 r midi_delay_ms, f 15;
#X obj 399 440 / 127;
#X obj 399 404 pipe 0, f 7;
#X obj 399 653 s main_time_stretch-r;
#X obj 588 440 / 127;
#X obj 588 404 pipe 0, f 7;
#X obj 588 469 * 24;
#X obj 588 498 - 12;
#X obj 588 543 s granular_formant_shift-r;
#X obj 613 570 s wavetable_formant_shift-r;
#X text 43 92 Supported CC: 7 - Volume \, 10 - Pan \, 1 - Modulation \, 11 - Expression \, 5 - Portamento Time;
#X obj 44 344 route 7 10 1 11 5, f 98;
#X obj 817 440 / 127;
#X obj 817 404 pipe 0, f 7;
#X obj 817 469 * 3000;
#X obj 817 527 s portamento-r;
#X obj 399 469 * 4;
#X obj 399 498 - 2;
#X obj 399 591 pow 0;
#X obj 399 527 t b f;
#X obj 399 560 2;
#X obj 399 620 * 100;
#X obj 167 225 r cc_input_enabled;
#X obj 43 290 spigot;
#X connect 0 0 4 0;
#X connect 0 1 1 0;
#X connect 1 0 47 0;
#X connect 2 0 18 0;
#X connect 4 0 1 0;
#X connect 4 1 1 1;
#X connect 6 0 7 0;
#X connect 8 0 21 0;
#X connect 9 0 14 0;
#X connect 10 0 12 0;
#X connect 10 1 11 1;
#X connect 11 0 15 0;
#X connect 12 0 11 0;
#X connect 13 0 10 0;
#X connect 14 0 13 0;
#X connect 16 0 17 0;
#X connect 17 0 15 0;
#X connect 18 0 19 0;
#X connect 19 0 3 0;
#X connect 20 0 2 0;
#X connect 21 0 9 0;
#X connect 22 0 21 1;
#X connect 23 0 6 0;
#X connect 24 0 23 1;
#X connect 24 0 20 1;
#X connect 24 0 26 1;
#X connect 24 0 29 1;
#X connect 24 0 37 1;
#X connect 25 0 40 0;
#X connect 26 0 25 0;
#X connect 28 0 30 0;
#X connect 29 0 28 0;
#X connect 30 0 31 0;
#X connect 31 0 32 0;
#X connect 31 0 33 0;
#X connect 35 0 20 0;
#X connect 35 1 23 0;
#X connect 35 2 26 0;
#X connect 35 3 29 0;
#X connect 35 4 37 0;
#X connect 36 0 38 0;
#X connect 37 0 36 0;
#X connect 38 0 39 0;
#X connect 40 0 41 0;
#X connect 41 0 43 0;
#X connect 42 0 45 0;
#X connect 43 0 44 0;
#X connect 43 1 42 1;
#X connect 44 0 42 0;
#X connect 45 0 27 0;
#X connect 46 0 47 1;
#X connect 47 0 35 0;
