#N canvas 827 239 527 327 12;
#X obj 78 63 inlet~ source;
#X obj 256 63 inlet~ mod;
#X obj 256 240 env~;
#X obj 78 330 *~;
#X obj 78 462 outlet~;
#X obj 400 63 \$1;
#X obj 400 130 + 28;
#X obj 400 97 * \$2;
#X obj 400 159 mtof;
#X obj 400 31 loadbang;
#X obj 256 302 dbtorms~;
#X obj 584 63 inlet clear;
#X msg 584 130 clear;
#X obj 582 97 t b;
#X obj 467 63 inlet is_active;
#X obj 467 92 switch~;
#X obj 78 209 bp~ 440 \$3;
#X obj 256 209 bp~ 440 \$3;
#X obj 78 395 *~ \$4;
#X obj 256 270 lop~ 50;
#X connect 0 0 16 0;
#X connect 1 0 17 0;
#X connect 2 0 19 0;
#X connect 3 0 18 0;
#X connect 5 0 7 0;
#X connect 6 0 8 0;
#X connect 7 0 6 0;
#X connect 8 0 16 1;
#X connect 8 0 17 1;
#X connect 9 0 5 0;
#X connect 10 0 3 1;
#X connect 11 0 13 0;
#X connect 12 0 16 0;
#X connect 12 0 17 0;
#X connect 12 0 19 0;
#X connect 13 0 12 0;
#X connect 14 0 15 0;
#X connect 16 0 3 0;
#X connect 17 0 2 0;
#X connect 18 0 4 0;
#X connect 19 0 10 0;
