#N canvas 827 239 527 327 12;
#X obj 105 167 rfft~;
#X obj 105 627 rifft~;
#X obj 105 58 inlet~;
#X obj 105 774 outlet~;
#X obj 105 218 *~;
#X obj 176 218 *~;
#X obj 105 274 +~;
#X obj 105 315 q8_sqrt~;
#X obj 105 112 *~;
#X obj 444 275 sig~ 1;
#X obj 105 682 *~;
#X obj 105 727 /~ 256;
#X obj 105 567 *~;
#X obj 278 58 inlet bash_factor;
#X obj 37 458 utils/sig_mix~;
#X obj 156 458 utils/sig_mix~;
#X obj 156 420 sig~ 0;
#X obj 105 506 >~;
#X obj 215 506 >~;
#X obj 176 567 *~;
#X obj 444 381 else/hann~;
#X text 343 599 Achieves the following effects through FFT:;
#X text 343 652 2 - Denoise: filter freq bins with low energy;
#X text 343 626 1 - Phase bash: set each freq bin's phase to zero;
#X obj 444 58 inlet noise_threshold;
#X obj 628 58 inlet is_active;
#X obj 628 112 switch~ 512 4 1, f 17;
#X connect 0 0 4 0;
#X connect 0 0 4 1;
#X connect 0 0 14 1;
#X connect 0 1 5 0;
#X connect 0 1 5 1;
#X connect 0 1 15 1;
#X connect 1 0 10 0;
#X connect 2 0 8 0;
#X connect 4 0 6 0;
#X connect 5 0 6 1;
#X connect 6 0 7 0;
#X connect 7 0 14 0;
#X connect 8 0 0 0;
#X connect 9 0 20 0;
#X connect 10 0 11 0;
#X connect 11 0 3 0;
#X connect 12 0 1 0;
#X connect 13 0 14 2;
#X connect 13 0 15 2;
#X connect 14 0 17 0;
#X connect 14 0 12 0;
#X connect 15 0 18 0;
#X connect 15 0 19 0;
#X connect 16 0 15 0;
#X connect 17 0 12 1;
#X connect 18 0 19 1;
#X connect 19 0 1 1;
#X connect 20 0 8 1;
#X connect 20 0 10 1;
#X connect 24 0 17 1;
#X connect 24 0 18 1;
#X connect 25 0 26 0;
