#N canvas 827 239 527 327 12;
#X obj 34 245 lop~;
#X obj 34 31 inlet~;
#X obj 34 185 utils/sig_mix~;
#X obj 34 348 outlet~;
#X obj 626 31 inlet is_active;
#X obj 192 31 inlet comb_fac;
#X obj 299 31 inlet comb_mix;
#X obj 34 309 utils/sig_mix~;
#X obj 514 31 inlet lop_mix;
#X obj 34 112 comb.filt~ 0 0.5 1;
#X obj 83 31 inlet~ comb_freq;
#X obj 626 106 switch~;
#X obj 409 31 inlet lop_freq;
#X obj 745 31 inlet reset;
#X msg 745 106 clear;
#X connect 0 0 7 0;
#X connect 1 0 2 1;
#X connect 1 0 9 0;
#X connect 2 0 0 0;
#X connect 2 0 7 1;
#X connect 4 0 11 0;
#X connect 5 0 9 2;
#X connect 6 0 2 2;
#X connect 7 0 3 0;
#X connect 8 0 7 2;
#X connect 9 0 2 0;
#X connect 10 0 9 1;
#X connect 12 0 0 1;
#X connect 13 0 14 0;
#X connect 14 0 0 0;
#X connect 14 0 9 0;
