#N canvas 827 239 527 327 12;
#X obj 34 332 lop~;
#X obj 34 31 inlet~;
#X obj 34 185 utils/sig_mix~;
#X obj 34 484 outlet~;
#X obj 724 31 inlet is_active;
#X obj 192 31 inlet comb_fac;
#X obj 299 31 inlet comb_mix;
#X obj 34 445 utils/sig_mix~;
#X obj 514 31 inlet lop_mix;
#X obj 34 112 comb.filt~ 0 0.5 1;
#X obj 83 31 inlet~ comb_freq;
#X obj 724 106 switch~;
#X obj 409 31 inlet lop_freq;
#X obj 843 31 inlet reset;
#X msg 843 106 clear;
#X obj 612 31 inlet lop_to_hip;
#X obj 409 156 utils/num_mix;
#X obj 409 101 loadbang;
#X obj 629 102 clip -1 0;
#X obj 544 101 clip 0 1;
#X obj 629 129 + 1;
#X obj 409 310 utils/num_mix;
#X obj 34 366 hip~;
#X obj 442 251 loadbang;
#X obj 409 129 20000;
#X obj 442 281 20;
#X connect 0 0 22 0;
#X connect 1 0 2 1;
#X connect 1 0 9 0;
#X connect 2 0 0 0;
#X connect 2 0 7 1;
#X connect 4 0 11 0;
#X connect 5 0 9 2;
#X connect 6 0 2 2;
#X connect 7 0 3 0;
#X connect 8 0 7 2;
#X connect 9 0 2 0;
#X connect 10 0 9 1;
#X connect 12 0 16 1;
#X connect 12 0 21 0;
#X connect 13 0 14 0;
#X connect 14 0 0 0;
#X connect 14 0 9 0;
#X connect 15 0 18 0;
#X connect 15 0 19 0;
#X connect 16 0 0 1;
#X connect 17 0 24 0;
#X connect 18 0 20 0;
#X connect 19 0 16 2;
#X connect 20 0 21 2;
#X connect 21 0 22 1;
#X connect 22 0 7 0;
#X connect 23 0 25 0;
#X connect 24 0 16 0;
#X connect 25 0 21 1;
