#N canvas 827 239 527 327 12;
#X obj 282 635 *~;
#X obj 301 258 +~ 0.5;
#X obj 301 288 wrap~;
#X obj 74 196 phasor~ 20;
#X obj 143 515 utils/myhann~;
#X obj 387 515 utils/myhann~;
#X obj 58 703 outlet~;
#X obj 363 44 inlet is_active;
#X obj 58 635 *~;
#X obj 363 76 switch~;
#X obj 58 515 *~;
#X obj 282 515 *~;
#X obj 282 600 delread4~ \$1;
#X obj 58 600 delread4~ \$1;
#X obj 525 43 inlet reset_phase;
#X obj 525 72 t b;
#X obj 525 101 0;
#X obj 58 122 *~;
#X obj 58 43 inlet~ freq_ratio;
#X obj 195 43 inlet~ grain_ms;
#X obj 58 87 +~ 1;
#X obj 195 76 pow~ -1;
#X obj 195 105 *~ 1000;
#X obj 58 557 +~ 1.5;
#X obj 282 557 +~ 1.5;
#X obj 143 347 samphold~;
#X obj 363 347 samphold~;
#X obj -99 43 inlet~ audio;
#X obj -99 87 delwrite~ \$1 300;
#X obj 695 43 inlet clear_buffer;
#X msg 695 72 clear;
#X connect 0 0 6 0;
#X connect 1 0 2 0;
#X connect 2 0 5 0;
#X connect 2 0 11 1;
#X connect 2 0 26 1;
#X connect 3 0 1 0;
#X connect 3 0 4 0;
#X connect 3 0 10 1;
#X connect 3 0 25 1;
#X connect 4 0 8 1;
#X connect 5 0 0 1;
#X connect 7 0 9 0;
#X connect 8 0 6 0;
#X connect 10 0 23 0;
#X connect 11 0 24 0;
#X connect 12 0 0 0;
#X connect 13 0 8 0;
#X connect 14 0 15 0;
#X connect 15 0 16 0;
#X connect 16 0 3 1;
#X connect 17 0 3 0;
#X connect 18 0 20 0;
#X connect 19 0 21 0;
#X connect 19 0 25 0;
#X connect 19 0 26 0;
#X connect 20 0 17 0;
#X connect 21 0 22 0;
#X connect 22 0 17 1;
#X connect 23 0 13 0;
#X connect 24 0 12 0;
#X connect 25 0 10 0;
#X connect 26 0 11 0;
#X connect 27 0 28 0;
#X connect 29 0 30 0;
#X connect 30 0 28 0;
