#N canvas 827 239 527 327 12;
#X obj 42 41 inlet~ playhead;
#X obj 527 41 inlet array_name;
#X msg 527 74 set \$1;
#X obj 650 41 inlet is_active;
#X obj 650 74 switch~;
#X obj 42 353 samphold~;
#X obj 42 489 +~;
#X obj 42 623 *~;
#X obj 383 388 samphold~;
#X obj 383 496 +~;
#X obj 383 623 *~;
#X obj 547 271 +~ 0.5;
#X obj 549 309 wrap~;
#X obj 122 489 utils/myhann~;
#X obj 463 496 utils/myhann~;
#X obj 42 725 outlet~;
#X obj 183 242 phasor~ 20, f 14;
#X obj 98 416 *~;
#X obj 549 432 *~;
#X obj 42 560 tabread4~ \$1;
#X obj 383 560 tabread4~ \$1;
#X obj 759 41 inlet reset_phase;
#X obj 759 70 t b;
#X obj 759 99 0;
#X obj 356 158 /~;
#X obj 205 158 *~;
#X obj 166 41 inlet~ freq_ratio;
#X obj 291 41 inlet~ grain_ms;
#X obj 291 74 pow~ -1;
#X obj 291 103 *~ 1000;
#X obj 402 41 inlet sample_rate;
#X obj 140 374 samphold~;
#X obj 591 388 samphold~;
#X connect 0 0 5 0;
#X connect 0 0 8 0;
#X connect 1 0 2 0;
#X connect 2 0 19 0;
#X connect 2 0 20 0;
#X connect 3 0 4 0;
#X connect 5 0 6 0;
#X connect 6 0 19 0;
#X connect 7 0 15 0;
#X connect 8 0 9 0;
#X connect 9 0 20 0;
#X connect 10 0 15 0;
#X connect 11 0 12 0;
#X connect 12 0 14 0;
#X connect 12 0 8 1;
#X connect 12 0 18 0;
#X connect 12 0 32 1;
#X connect 13 0 7 1;
#X connect 14 0 10 1;
#X connect 16 0 11 0;
#X connect 16 0 13 0;
#X connect 16 0 5 1;
#X connect 16 0 17 0;
#X connect 16 0 31 1;
#X connect 17 0 6 1;
#X connect 18 0 9 1;
#X connect 19 0 7 0;
#X connect 20 0 10 0;
#X connect 21 0 22 0;
#X connect 22 0 23 0;
#X connect 23 0 16 1;
#X connect 24 0 31 0;
#X connect 24 0 32 0;
#X connect 25 0 16 0;
#X connect 26 0 25 1;
#X connect 27 0 28 0;
#X connect 28 0 29 0;
#X connect 29 0 24 1;
#X connect 29 0 25 0;
#X connect 30 0 24 0;
#X connect 31 0 17 1;
#X connect 32 0 18 1;
