#N canvas 827 239 527 327 12;
#X obj 62 154 notein;
#X obj 62 383 pack f f f;
#X obj 68 1257 dac~;
#X obj 205 830 r global_volume;
#X obj 205 863 + 100;
#X obj 205 892 dbtorms;
#X obj 70 928 *~ 0.5;
#X obj 62 457 route 1 2 3 4 5 6 7 8 9 10 11 12 13 14 15 16, f 46;
#X text 57 27 Route the input MIDI signal to support polyphony.;
#X msg 12 154 stop;
#X obj 273 928 r global_pan;
#X obj 37 1110 *~;
#X obj 117 1110 *~;
#X obj 132 125 r emulated_note_in;
#X obj 132 154 unpack f f;
#X obj 62 423 spigot;
#X obj 285 154 r legato;
#X obj 286 253 == 0;
#X obj 708 219 notein;
#X obj 540 253 r emulated_note_in;
#X obj 783 219 r legato;
#X text 560 183 Create a separate channel for the legato mode.;
#X obj 784 283 > 0;
#X obj 708 253 pack f f;
#X obj 540 315 spigot;
#X obj 540 354 t list list;
#X obj 825 395 unpack;
#X obj 920 457 > 0.5;
#X obj 794 457 ==;
#X obj 942 395 r ongoing;
#X obj 850 457 == -1;
#X obj 540 395 unpack;
#X obj 540 498 spigot;
#X obj 486 573 s ongoing;
#X obj 620 557 spigot;
#X obj 679 557 spigot;
#X obj 708 664 s ongoing;
#X obj 708 603 bang;
#X obj 708 632 -1;
#X text 779 338 A state machine determining whether should send a new onset/offset message \, or send pitch information only.;
#X obj 920 564 loadbang;
#X obj 920 593 -1;
#X obj 920 622 s ongoing;
#X text 960 591 Use pitch value -1 to indicate that no notes are playing.;
#X obj 620 498 moses 0.5;
#X obj 540 528 t f f f;
#X obj 825 622 s last_pitch;
#X obj 273 957 / 200;
#X obj 273 986 + 0.5;
#X text 57 53 [clone] is not used here \, which makes it easier to debug the subpatches in PlugData.;
#X obj 540 664 voice_processor~;
#X obj 62 504 voice_processor~;
#X obj 62 339 poly 16 1;
#X obj 80 536 voice_processor~;
#X obj 99 564 voice_processor~;
#X obj 117 592 voice_processor~;
#X obj 136 622 voice_processor~;
#X obj 155 650 voice_processor~;
#X obj 173 678 voice_processor~;
#X obj 192 704 voice_processor~;
#X obj 211 504 voice_processor~;
#X obj 229 536 voice_processor~;
#X obj 248 564 voice_processor~;
#X obj 266 592 voice_processor~;
#X obj 285 622 voice_processor~;
#X obj 304 650 voice_processor~;
#X obj 322 678 voice_processor~;
#X obj 341 704 voice_processor~;
#X obj 117 1208 hip~ 1;
#X obj 37 1208 hip~ 1;
#X obj 273 1016 * 1.5708;
#X obj 273 1053 cos;
#X obj 328 1053 sin;
#X connect 0 0 52 0;
#X connect 0 1 52 1;
#X connect 1 0 15 0;
#X connect 3 0 4 0;
#X connect 4 0 5 0;
#X connect 5 0 6 1;
#X connect 6 0 11 0;
#X connect 6 0 12 0;
#X connect 7 0 51 0;
#X connect 7 1 53 0;
#X connect 7 2 54 0;
#X connect 7 3 55 0;
#X connect 7 4 56 0;
#X connect 7 5 57 0;
#X connect 7 6 58 0;
#X connect 7 7 59 0;
#X connect 7 8 60 0;
#X connect 7 9 61 0;
#X connect 7 10 62 0;
#X connect 7 11 63 0;
#X connect 7 12 64 0;
#X connect 7 13 65 0;
#X connect 7 14 66 0;
#X connect 7 15 67 0;
#X connect 9 0 52 0;
#X connect 10 0 47 0;
#X connect 11 0 69 0;
#X connect 12 0 68 0;
#X connect 13 0 14 0;
#X connect 14 0 52 0;
#X connect 14 1 52 1;
#X connect 15 0 7 0;
#X connect 16 0 17 0;
#X connect 17 0 15 1;
#X connect 18 0 23 0;
#X connect 18 1 23 1;
#X connect 19 0 24 0;
#X connect 20 0 22 0;
#X connect 22 0 24 1;
#X connect 23 0 24 0;
#X connect 24 0 25 0;
#X connect 25 0 31 0;
#X connect 25 1 26 0;
#X connect 26 0 28 0;
#X connect 26 1 27 0;
#X connect 27 0 32 1;
#X connect 28 0 34 1;
#X connect 29 0 28 1;
#X connect 29 0 30 0;
#X connect 30 0 35 1;
#X connect 31 0 32 0;
#X connect 31 1 44 0;
#X connect 32 0 45 0;
#X connect 34 0 37 0;
#X connect 34 0 50 4;
#X connect 34 0 50 2;
#X connect 35 0 50 3;
#X connect 37 0 38 0;
#X connect 38 0 36 0;
#X connect 40 0 41 0;
#X connect 41 0 42 0;
#X connect 41 0 46 0;
#X connect 44 0 34 0;
#X connect 44 1 50 2;
#X connect 45 0 33 0;
#X connect 45 1 50 1;
#X connect 45 2 35 0;
#X connect 47 0 48 0;
#X connect 48 0 70 0;
#X connect 50 0 6 0;
#X connect 51 0 6 0;
#X connect 52 0 1 0;
#X connect 52 1 1 1;
#X connect 52 2 1 2;
#X connect 53 0 6 0;
#X connect 54 0 6 0;
#X connect 55 0 6 0;
#X connect 56 0 6 0;
#X connect 57 0 6 0;
#X connect 58 0 6 0;
#X connect 59 0 6 0;
#X connect 60 0 6 0;
#X connect 61 0 6 0;
#X connect 62 0 6 0;
#X connect 63 0 6 0;
#X connect 64 0 6 0;
#X connect 65 0 6 0;
#X connect 66 0 6 0;
#X connect 67 0 6 0;
#X connect 68 0 2 1;
#X connect 69 0 2 0;
#X connect 70 0 71 0;
#X connect 70 0 72 0;
#X connect 71 0 11 1;
#X connect 72 0 12 1;
