#N canvas 113 316 3840 2016 12;
#X obj 35 571 r main_start_position;
#X obj 35 600 * 0.01;
#X obj 35 646 *;
#X obj 335 571 r main_sample_length;
#X obj 185 600 * 0.01;
#X obj 185 646 *;
#X obj 185 571 r main_end_position;
#X obj 35 811 -;
#X obj 335 600 t b f;
#X obj 35 761 t b f;
#X obj 133 787 r main_sample_rate;
#X obj 133 823 t b f;
#X obj 35 862 /;
#X obj 35 954 * 1000;
#X text 95 953 Duration (ms) of playing the sample;
#X obj 35 915 *;
#X obj 278 746 r main_time_stretch;
#X obj 278 813 t b f;
#X obj 278 779 * 0.01;
#X obj 35 985 abs;
#X obj 203 705 s main_start_sample;
#X obj 371 705 s main_end_sample;
#X obj 278 901 s main_sample_length_to_play;
#X obj 35 1028 s main_time_to_play;
#X obj 1222 620 mtof;
#X obj 1222 648 s main_base_freq;
#X obj 1532 609 samplerate~;
#X obj 1532 576 r pd-dsp-started;
#X obj 1532 647 / 128;
#X obj 1532 687 s fft_base_freq;
#X obj 1643 687 ftom;
#X obj 1643 716 s fft_base_pitch;
#X text 1222 549 Pitch offset calculation.;
#X text 35 538 Calculate time-related variables of the main sample.;
#X text 1534 549 The base frequency when performing FFT using [block~ 512 4 1];
#X text 35 8 Load samples from GUI events.;
#X obj 35 291 soundfiler;
#X obj 35 112 openpanel;
#X msg 35 252 read -resize \$1 main_sample;
#X obj 35 350 s main_sample_length;
#X obj 211 350 s main_sample_rate;
#X obj 211 320 unpack f f;
#X obj 35 39 r gui_load_main_sample;
#X obj 128 138 s camomile;
#X obj 278 39 r openpanel;
#X msg 128 112 openpanel;
#X obj 670 291 soundfiler;
#X obj 670 112 openpanel;
#X obj 846 320 unpack f f;
#X obj 670 39 r gui_load_sub_sample;
#X msg 670 252 read -resize \$1 sub_sample;
#X obj 670 350 s sub_sample_length;
#X obj 846 350 s sub_sample_rate;
#X obj 1222 112 pack f f f f;
#X obj 1266 74 r main_start_sample;
#X obj 1410 74 r main_end_sample;
#X obj 1541 39 r main_time_to_play;
#X msg 1222 151 \$2 \, \$3 \$4;
#X obj 1222 258 tabread4~ main_sample;
#X obj 1369 299 dac~;
#X obj 1222 204 line~;
#X obj 1222 299 sigmund~ notes;
#X obj 1679 39 r main_time_stretch;
#X obj 1679 98 t b f;
#X obj 1679 68 * 0.01;
#X obj 1541 98 /;
#X text 1457 137 Play the sample at the original speed to detect the pitch.;
#X obj 1222 39 r gui_pitch_detection;
#X text 1222 8 Detect main sample pitch according to GUI events.;
#X obj 550 600 * 0.01;
#X obj 550 646 *;
#X obj 700 600 * 0.01;
#X obj 700 646 *;
#X obj 550 811 -;
#X obj 850 600 t b f;
#X obj 550 761 t b f;
#X obj 648 823 t b f;
#X obj 550 862 /;
#X obj 550 1128 * 1000;
#X text 610 1127 Duration (ms) of playing the sample;
#X obj 550 1089 *;
#X obj 663 1095 t b f;
#X obj 663 1061 * 0.01;
#X obj 550 1159 abs;
#X text 550 538 Calculate time-related variables of the sub sample.;
#X obj 550 571 r sub_start_position;
#X obj 700 571 r sub_end_position;
#X obj 850 571 r sub_sample_length;
#X obj 718 705 s sub_start_sample;
#X obj 886 705 s sub_end_sample;
#X obj 663 1028 r sub_time_stretch;
#X obj 648 787 r sub_sample_rate;
#X obj 614 862 s sub_sample_length_to_play;
#X obj 550 1202 s sub_time_to_play;
#X obj 620 938 r sub_auto_stretch;
#X obj 550 977 utils/num_mix;
#X text 747 937 The option to use the main sample as the duration base.;
#X obj 190 71 t b b;
#X obj 220 112 0;
#X obj 278 97 spigot;
#X obj 370 68 == 0;
#X obj 220 138 s panel_id;
#X obj 370 39 r panel_id;
#X obj 776 138 s camomile;
#X obj 926 39 r openpanel;
#X msg 776 112 openpanel;
#X obj 838 71 t b b;
#X obj 926 97 spigot;
#X obj 868 138 s panel_id;
#X obj 1018 39 r panel_id;
#X obj 868 112 1;
#X obj 1018 68 == 1;
#X obj 35 168 s main_sample_path;
#X obj 35 215 r main_sample_path;
#X obj 670 168 s sub_sample_path;
#X obj 670 215 r sub_sample_path;
#X obj 243 211 file splitname;
#X msg 243 239 \; label_main_file_name label \$2;
#X obj 474 294 s camomile;
#X msg 474 267 gui redraw;
#X obj 474 239 t b;
#X obj 885 210 file splitname;
#X obj 1116 293 s camomile;
#X msg 1116 266 gui redraw;
#X obj 1116 238 t b;
#X msg 885 238 \; label_sub_file_name label \$2;
#X obj 1222 335 s main_base_pitch-r;
#X obj 1222 585 r main_base_pitch;
#X msg -151 350 0 0 0 0 0 0 0 0 0 0 0 0 0 0 0 0 0 0 0 0 0 0 0 0 0 0 0 0 0 0 0 0 0 0 0 0 0 0 0 0 0 0 0 0 0 0 0 0 0 0 0 0 0 0 0 0 0 0 0 0 0 0 0 0, f 24;
#X obj -151 441 array set main_sample 0;
#X msg 492 350 0 0 0 0 0 0 0 0 0 0 0 0 0 0 0 0 0 0 0 0 0 0 0 0 0 0 0 0 0 0 0 0 0 0 0 0 0 0 0 0 0 0 0 0 0 0 0 0 0 0 0 0 0 0 0 0 0 0 0 0 0 0 0 0, f 23;
#X obj 492 441 array set sub_sample 0;
#X obj 1343 178 pipe 0;
#X msg 1345 151 0;
#X obj 1371 151 + 50;
#X connect 0 0 1 0;
#X connect 1 0 2 0;
#X connect 2 0 9 0;
#X connect 2 0 20 0;
#X connect 3 0 8 0;
#X connect 4 0 5 0;
#X connect 5 0 7 0;
#X connect 5 0 21 0;
#X connect 6 0 4 0;
#X connect 7 0 12 0;
#X connect 7 0 22 0;
#X connect 8 0 5 0;
#X connect 8 0 2 0;
#X connect 8 1 5 1;
#X connect 8 1 2 1;
#X connect 9 0 7 0;
#X connect 9 1 7 1;
#X connect 10 0 11 0;
#X connect 11 0 12 0;
#X connect 11 1 12 1;
#X connect 12 0 15 0;
#X connect 13 0 19 0;
#X connect 15 0 13 0;
#X connect 15 0 95 0;
#X connect 16 0 18 0;
#X connect 17 0 15 0;
#X connect 17 1 15 1;
#X connect 18 0 17 0;
#X connect 19 0 23 0;
#X connect 24 0 25 0;
#X connect 26 0 28 0;
#X connect 27 0 26 0;
#X connect 28 0 29 0;
#X connect 28 0 30 0;
#X connect 30 0 31 0;
#X connect 36 0 39 0;
#X connect 36 0 128 0;
#X connect 36 1 41 0;
#X connect 37 0 112 0;
#X connect 38 0 36 0;
#X connect 41 0 40 0;
#X connect 42 0 37 0;
#X connect 42 0 97 0;
#X connect 44 0 99 0;
#X connect 45 0 43 0;
#X connect 46 0 51 0;
#X connect 46 1 48 0;
#X connect 47 0 114 0;
#X connect 48 0 52 0;
#X connect 49 0 47 0;
#X connect 49 0 106 0;
#X connect 50 0 46 0;
#X connect 50 0 130 0;
#X connect 53 0 57 0;
#X connect 54 0 53 1;
#X connect 55 0 53 2;
#X connect 56 0 65 0;
#X connect 57 0 60 0;
#X connect 58 0 59 0;
#X connect 58 0 61 0;
#X connect 58 0 59 1;
#X connect 60 0 58 0;
#X connect 61 0 126 0;
#X connect 62 0 64 0;
#X connect 63 0 65 0;
#X connect 63 1 65 1;
#X connect 64 0 63 0;
#X connect 65 0 53 3;
#X connect 65 0 134 0;
#X connect 67 0 53 0;
#X connect 67 0 133 0;
#X connect 69 0 70 0;
#X connect 70 0 75 0;
#X connect 70 0 88 0;
#X connect 71 0 72 0;
#X connect 72 0 73 0;
#X connect 72 0 89 0;
#X connect 73 0 77 0;
#X connect 73 0 92 0;
#X connect 74 0 72 0;
#X connect 74 0 70 0;
#X connect 74 1 72 1;
#X connect 74 1 70 1;
#X connect 75 0 73 0;
#X connect 75 1 73 1;
#X connect 76 0 77 0;
#X connect 76 1 77 1;
#X connect 77 0 95 1;
#X connect 78 0 83 0;
#X connect 80 0 78 0;
#X connect 81 0 80 0;
#X connect 81 1 80 1;
#X connect 82 0 81 0;
#X connect 83 0 93 0;
#X connect 85 0 69 0;
#X connect 86 0 71 0;
#X connect 87 0 74 0;
#X connect 90 0 82 0;
#X connect 91 0 76 0;
#X connect 94 0 95 2;
#X connect 95 0 80 0;
#X connect 97 0 45 0;
#X connect 97 1 98 0;
#X connect 98 0 101 0;
#X connect 99 0 112 0;
#X connect 100 0 99 1;
#X connect 102 0 100 0;
#X connect 104 0 107 0;
#X connect 105 0 103 0;
#X connect 106 0 105 0;
#X connect 106 1 110 0;
#X connect 107 0 114 0;
#X connect 109 0 111 0;
#X connect 110 0 108 0;
#X connect 111 0 107 1;
#X connect 113 0 38 0;
#X connect 113 0 116 0;
#X connect 115 0 50 0;
#X connect 115 0 121 0;
#X connect 116 0 117 0;
#X connect 116 0 120 0;
#X connect 119 0 118 0;
#X connect 120 0 119 0;
#X connect 121 0 125 0;
#X connect 121 0 124 0;
#X connect 123 0 122 0;
#X connect 124 0 123 0;
#X connect 127 0 24 0;
#X connect 128 0 129 0;
#X connect 130 0 131 0;
#X connect 132 0 60 0;
#X connect 133 0 132 0;
#X connect 134 0 132 1;
