#N canvas 827 239 527 327 12;
#X obj 124 3206 outlet~;
#X obj 343 2948 r attack;
#X obj 407 2948 r decay;
#X obj 477 2919 r sustain;
#X obj 544 2948 r release;
#X obj 123 762 line~;
#X text 430 3023 When the note is off and released \, shut down the whole module to reduce the CPU usage., f 33;
#X obj 456 1329 r main_source;
#X obj 122 932 +~;
#X obj 122 847 pow~;
#X obj 239 689 r main_time_curve;
#X obj 322 1380 r wavetable_grain;
#X obj 122 887 *~;
#X obj 239 774 r main_sample_length_to_play;
#X obj 239 841 r main_start_sample;
#X obj 255 487 r main_time_to_play;
#X obj 294 1072 r main_sample_rate;
#X obj 342 1136 t b f;
#X obj 294 1176 /;
#X obj 294 1228 *;
#X obj 453 1259 t b f;
#X obj 453 1105 r wavetable_formant_shift;
#X obj 456 1361 == 1;
#X obj 629 1105 r wavetable_formant_preservation;
#X obj 740 1136 r main_base_freq;
#X obj 629 1195 /;
#X obj 740 1165 t b f;
#X obj 629 1259 *;
#X obj 294 1298 utils/num_mix;
#X obj 223 739 float;
#X obj 223 810 float;
#X obj 223 875 float;
#X obj 55 762 phasor~;
#X obj 239 616 r main_loop;
#X obj 239 660 float;
#X obj 67 803 utils/sig_mix~;
#X obj 239 587 float;
#X msg 123 729 0 \, 1 \$1;
#X obj 55 677 pow -1;
#X obj 55 706 * 1000;
#X obj 453 1139 / 12;
#X obj 453 1168 t b f;
#X obj 453 1194 2;
#X obj 453 1230 pow;
#X obj 164 1329 r \$0-adjusted_freq;
#X text 1179 10 Calculate the true frequency used to make sound.;
#X text 1181 37 Affected by: bending input \, portamento \, sound fusion;
#X text 15 257 Generate the playhead for sample array lookup.;
#X text 15 280 Use [line~] for one-shot playing and [phasor~] for loops.;
#X obj 1298 1332 r main_source;
#X obj 985 1393 r \$0-adjusted_freq;
#X obj 1193 1393 r wavetable_grain;
#X text 495 1056 The wavetable size affects the formant \, determined by multiple parameters.;
#X obj 1137 1155 t b f;
#X obj 1089 1195 /;
#X obj 1089 1247 *;
#X obj 1283 1278 t b f;
#X obj 1283 1124 r wavetable_formant_shift;
#X obj 1459 1124 r wavetable_formant_preservation;
#X obj 1459 1228 /;
#X obj 1570 1184 t b f;
#X obj 1459 1285 *;
#X obj 1089 1317 utils/num_mix;
#X obj 1283 1158 / 12;
#X obj 1283 1187 t b f;
#X obj 1283 1213 2;
#X obj 1283 1249 pow;
#X obj 1089 1108 samplerate~;
#X obj 1570 1155 r main_audio_freq;
#X obj 1459 1255 t b f;
#X obj -658 1122 saw~ 440;
#X obj -658 1230 *~;
#X obj -609 1146 r main_source;
#X obj -609 1182 == 0;
#X obj -658 1068 r \$0-adjusted_freq;
#X obj 1298 1360 > 1;
#X obj -658 1259 *~ 0.25;
#X text -658 1022 Case 0: Simple saw wave as a reference.;
#X obj 563 1361 t b f;
#X obj 456 1390 *;
#X obj 1410 1364 t b f;
#X obj 1298 1408 *;
#X obj 563 1329 r wavetable_enabled;
#X obj 1410 1332 r wavetable_enabled;
#X obj 122 1557 *~ 1;
#X obj 157 1483 r wavetable_volume;
#X obj 1907 1001 r \$0-adjusted_freq;
#X obj 1998 1244 r main_sample_rate;
#X obj 2465 1191 r main_source;
#X obj 2465 1223 == 1;
#X obj 2572 1223 t b f;
#X obj 2465 1252 *;
#X obj 2572 1191 r granular_enabled;
#X obj 1932 1059 t b f;
#X obj 1907 1095 /;
#X obj 1946 1624 * 0.01;
#X obj 1946 1595 r granular_volume;
#X obj 1932 1028 r main_base_freq;
#X obj 1089 1075 r pd-dsp-started;
#X obj 1832 1444 fft_mod~;
#X obj 1832 1514 utils/sig_mix~;
#X obj 1900 1354 r granular_denoise;
#X obj 1870 1323 r granular_phase_bash;
#X obj 1995 1405 > 0;
#X obj 1971 1473 ||;
#X obj 1995 1434 t b f;
#X text 2067 1328 If phase bashing is enabled \, do tuning in two stages: the first one to shift the formant \, and the second one to shift the pitch.;
#X obj 1832 1576 *~;
#X obj 1943 1512 r granular_phase_bash;
#X obj 1943 1535 - 1;
#X obj 1943 1558 * -1;
#X obj 2067 1576 *~;
#X obj 122 1444 wavetable_sampler~ main_sample, f 51;
#X obj 985 1447 wavetable_fx~ main_delay_line, f 48;
#X obj 1832 1275 granular_sampler~ main_sample, f 51;
#X obj 2325 1419 r main_source;
#X obj 2432 1451 t b f;
#X obj 2325 1480 *;
#X obj 2432 1419 r granular_enabled;
#X obj 2325 1512 *;
#X obj 2561 1419 r granular_phase_bash;
#X obj 2561 1451 t b f;
#X obj 2162 1424 r \$0-adjusted_freq;
#X obj 2187 1482 t b f;
#X obj 2162 1518 /;
#X obj 2187 1451 r fft_base_freq;
#X obj 2075 1169 r granular_phase_bash;
#X obj 1891 1169 utils/num_mix;
#X obj 2182 888 r granular_formant_shift;
#X obj 2182 940 / 12;
#X obj 2182 1030 pow;
#X obj 2182 968 t b f;
#X obj 2182 1000 2;
#X obj 1946 1217 r granular_grain;
#X obj 2215 1518 r granular_grain;
#X text 2198 847 The capacity of shifting formants is limited compared with wavetable synthesis., f 49;
#X obj 2803 1275 granular_fx~ main_delay_line, f 48;
#X obj 3062 1136 r main_source;
#X obj 3169 1168 t b f;
#X obj 3062 1197 *;
#X obj 3169 1136 r granular_enabled;
#X obj 3062 1168 > 1;
#X obj 2907 1244 r granular_grain;
#X obj 2803 1042 r \$0-adjusted_freq;
#X obj 2828 1100 t b f;
#X obj 2803 1136 /;
#X obj 2828 1069 r main_audio_freq;
#X obj 2803 1453 fft_mod~;
#X obj 2803 1523 utils/sig_mix~;
#X obj 2966 1366 r granular_denoise;
#X obj 2841 1332 r granular_phase_bash;
#X obj 2966 1414 > 0;
#X obj 2942 1482 ||;
#X obj 2966 1443 t b f;
#X obj 2803 1585 *~;
#X obj 2914 1522 r granular_phase_bash;
#X obj 2914 1544 - 1;
#X obj 2914 1567 * -1;
#X obj 2710 1585 *~;
#X obj 2873 1001 r granular_phase_bash;
#X obj 2803 1217 utils/num_mix;
#X obj 2325 1451 > 0;
#X obj 2524 863 r granular_formant_preservation;
#X obj 2524 959 *;
#X obj 2382 917 r \$0-adjusted_pitch;
#X obj 2371 888 r fft_base_pitch;
#X obj 2371 994 -;
#X obj 2524 994 t b f;
#X obj 2182 917 + 0;
#X obj 2438 947 t b f;
#X obj 2524 922 t b f;
#X obj 157 1512 * 0.02;
#X text 2198 826 Shift formant instead of pitch when phase bashing is on., f 54;
#X obj 1304 430 mtof;
#X obj 1392 398 r pitch_bend;
#X obj 1392 430 t b f;
#X obj 1304 601 ftom;
#X obj 1304 630 s \$0-adjusted_pitch;
#X obj 1441 630 s \$0-adjusted_freq;
#X obj 1192 251 s last_pitch;
#X obj 1207 166 r attack;
#X obj 1526 152 r last_pitch;
#X obj 1400 295 pack f f f, f 21;
#X obj 1477 194 r portamento;
#X msg 1400 326 \$3 \, \$1 \$2;
#X obj 1192 209 pipe;
#X obj 1400 220 spigot;
#X obj 1304 251 spigot;
#X obj 1426 188 >= 0;
#X obj 1341 212 < 0;
#X obj 90 574 0;
#X obj 173 59 unpack f f;
#X obj 372 96 s \$0-note_velocity;
#X obj 288 96 moses 0.5;
#X obj 8 181 s \$0-note_onset;
#X obj 288 126 s \$0-note_offset;
#X obj 178 181 s \$0-note_pitch;
#X obj 173 126 spigot;
#X obj 213 96 > 0.5;
#X obj 173 30 inlet poly_note;
#X obj 603 50 inlet legato_pitch;
#X obj 735 50 inlet legato_velocity;
#X obj 603 96 s \$0-note_pitch;
#X obj 735 96 s \$0-note_velocity;
#X obj 891 96 s \$0-note_onset;
#X obj 1023 96 s \$0-note_offset;
#X text 86 -33 A mega-patch containing the whole process to render the sound of a single MIDI note., f 75;
#X text 84 6 Process MIDI note input of the polyphony mode.;
#X text 603 10 Process MIDI note input of the legato mode \, where a pitch change can come without a onset/offset message.;
#X obj 1684 1124 t b;
#X obj 866 1162 t b;
#X text -358 1022 Case 1: Untuned voice.;
#X text 190 1022 Case 2: Wavetable synthesis on the sample array.;
#X text 1082 1022 Case 3: Wavetable synthesis on real-time signals.;
#X text 1832 966 Case 4: Granular synthesis on the sample array.;
#X text 2735 966 Case 5: Granular synthesis on real-time signals.;
#X obj -215 1124 r main_sample_rate;
#X obj -381 1155 granular_sampler~ main_sample, f 51;
#X obj -271 1101 r granular_grain;
#X obj -328 1101 sig~ 1;
#X obj -105 1036 r main_source;
#X obj -105 1068 == 1;
#X obj 2 1068 t b f;
#X obj -105 1097 *;
#X obj 2 1036 r untuned_enabled;
#X obj -317 1541 *~ 1;
#X obj -272 1471 r untuned_volume;
#X obj -272 1500 * 0.01;
#X obj -317 1285 delread~ main_delay_line;
#X obj -317 1332 *~;
#X obj -134 1285 r main_source;
#X obj -27 1317 t b f;
#X obj -134 1346 *;
#X obj -27 1285 r untuned_enabled;
#X obj -134 1317 > 1;
#X obj 255 522 * 1;
#X obj 653 419 r main_stretch_mode;
#X obj 471 419 r main_base_freq;
#X obj 471 468 /;
#X obj 653 462 == 1;
#X obj 471 498 pow;
#X obj 594 419 mtof;
#X obj 471 528 t b f;
#X obj 891 50 inlet legato_onset;
#X obj 1023 50 inlet legato_offset;
#X text 255 429 (1) Constant mode: get duration from user parameters., f 19;
#X text 471 379 (2) Classic mode: stretch the sample based on its pitch.;
#X obj 153 152 t f f;
#X obj 3113 1244 t b;
#X obj 629 1136 r \$0-adjusted_freq;
#X obj 342 1105 r \$0-adjusted_freq;
#X obj 1137 1124 r \$0-adjusted_freq;
#X obj 1459 1155 r \$0-adjusted_freq;
#X obj 1464 264 float;
#X obj 1400 251 t f b;
#X obj 893 320 s \$0-adjusted_onset;
#X obj 893 167 r \$0-note_onset;
#X obj 90 344 r \$0-adjusted_onset;
#X obj -49 1127 r \$0-adjusted_onset;
#X obj 868 1136 r \$0-adjusted_onset;
#X obj 1686 1098 r \$0-adjusted_onset;
#X obj 2251 1202 r \$0-adjusted_onset;
#X obj 3115 1217 r \$0-adjusted_onset;
#X obj 735 167 r \$0-note_velocity;
#X obj 735 285 s \$0-adjusted_velocity;
#X obj 181 2948 r \$0-adjusted_velocity;
#X obj 735 243 pipe 0;
#X obj 893 278 pipe 0;
#X obj 629 1222 t b f;
#X obj 761 202 r midi_delay_ms;
#X obj 919 237 r midi_delay_ms;
#X obj 1304 82 r \$0-note_pitch, f 18;
#X obj 1304 126 pipe, f 18;
#X obj 1450 82 r midi_delay_ms;
#X obj 1066 237 timer;
#X obj 893 202 t f b;
#X obj 1040 167 r \$0-note_offset;
#X obj 1040 380 pipe 0;
#X obj 1113 278 -;
#X obj 1113 307 * -1;
#X text 852 379 (3) Adaptive mode: make the sample length equal to the note length., f 22;
#X obj 1062 407 r release;
#X obj 1040 439 +;
#X obj 594 448 t b f;
#X text 167 371 Do not update parameters until a new note comes., f 29;
#X obj 1040 468 r main_stretch_mode;
#X obj 1040 511 == 2;
#X obj 521 587 utils/num_mix;
#X obj 1080 202 t b;
#X obj 1113 344 - 10;
#X obj 1040 316 min;
#X obj 124 3084 *~;
#X obj 122 1874 *~ 1;
#X obj 124 2799 utils/sig_mix~;
#X obj 332 2745 r filter_enabled;
#X obj 219 2642 r comb_filt_factor;
#X obj 342 2642 r comb_filt_mix, f 14;
#X obj 687 2626 r lop_filt_mix;
#X obj 1304 556 t f f;
#X obj 1573 630 s \$0-filter_freq;
#X obj 174 2548 r \$0-filter_freq;
#X obj 282 2548 r octave_doubler;
#X obj 282 2603 t b f;
#X obj 174 2642 *;
#X obj 459 2574 t b f;
#X obj 459 2539 r lop_filt_factor;
#X obj 459 2613 *;
#X obj 282 2574 + 1;
#X obj 762 2503 r lop_pluck;
#X obj 622 2539 pack f f;
#X obj 459 2642 *;
#X obj 622 2597 line;
#X obj 622 2626 t b f;
#X msg 622 2568 10 \, 1 \$2;
#X obj 55 887 <~ 1;
#X obj 122 1500 *~;
#X obj 55 918 lop~ 10;
#X obj 1832 1361 *~;
#X obj -381 1222 *~;
#X obj 286 3024 adsr~ -lin 50 10 1 100;
#X obj 440 3197 s \$0-playing;
#X obj 124 3157 *~;
#X obj 163 3117 r \$0-playing;
#X obj 15 574 1;
#X obj 15 603 s \$0-playing;
#X obj 2218 1718 line~;
#X obj 440 3139 moses 0.5;
#X obj 306 3197 s \$0-clear_buffer;
#X obj 622 2503 r \$0-adjusted_onset;
#X msg 797 2657 clear;
#X obj 797 2626 r \$0-clear_buffer;
#X obj 477 2948 / 100;
#X obj 239 715 / 100;
#X obj 1876 1408 / 100;
#X obj 526 1195 / 100;
#X obj 1361 1195 / 100;
#X obj 2524 894 / 100;
#X text 2067 1374 Otherwise \, do tuning in a single stage. In this case \, the formant shift cannot be controlled by the user.;
#X obj 219 2670 / 100;
#X obj 282 2670 / 100;
#X obj 687 2657 / 100;
#X text 412 2514 Multiplier of the base frequency.;
#X obj 401 3487 switch~;
#X obj -1193 762 line~;
#X obj -1194 932 +~;
#X obj -1194 847 pow~;
#X obj -1194 887 *~;
#X obj -1093 739 float;
#X obj -1093 810 float;
#X obj -1093 875 float;
#X obj -1261 762 phasor~;
#X obj -1077 660 float;
#X obj -1249 803 utils/sig_mix~;
#X obj -1077 587 float;
#X msg -1193 729 0 \, 1 \$1;
#X obj -1261 677 pow -1;
#X obj -1261 706 * 1000;
#X obj -1226 574 0;
#X obj -1061 522 * 1;
#X obj -663 419 r main_stretch_mode;
#X obj -845 419 r main_base_freq;
#X obj -845 468 /;
#X obj -663 462 == 1;
#X obj -845 498 pow;
#X obj -722 419 mtof;
#X obj -1226 380 t b f;
#X obj -845 528 t b f;
#X obj -1226 344 r \$0-adjusted_onset;
#X obj -722 448 t b f;
#X obj -795 587 utils/num_mix;
#X obj -1077 715 / 100;
#X obj -1061 487 r sub_time_to_play;
#X obj -1077 616 r sub_loop;
#X obj -1077 689 r sub_time_curve;
#X obj -1077 774 r sub_sample_length_to_play;
#X obj -1077 841 r sub_start_sample;
#X text -1226 315 Play the sub sample. Basically the same way as the main sample.;
#X obj -1084 961 r granular_grain;
#X obj -1141 961 sig~ 1;
#X obj -918 957 *;
#X obj -862 987 r \$0-adjusted_onset;
#X obj -945 887 r sub_source;
#X obj -945 919 == 0;
#X obj -1028 984 r sub_sample_rate;
#X obj -845 788 r mod_volume;
#X obj -738 788 r mod_pitch;
#X obj -738 817 t b f;
#X obj -734 865 t b f;
#X obj -845 916 t b f;
#X obj -1194 1015 granular_sampler~ sub_sample, f 51;
#X obj -1593 887 delread~ sub_delay_line;
#X obj -1593 1015 *~;
#X obj -1420 887 r sub_source;
#X obj -1420 957 *;
#X obj -1287 1211 +~;
#X obj 174 1919 sigmund~ env;
#X obj 174 1977 s \$0-main_env;
#X obj -960 1297 r \$0-main_env;
#X obj -1007 1372 /;
#X obj -960 1340 t b f;
#X obj -902 1369 > 0;
#X obj -902 1340 r mod_volume_factor;
#X obj -1081 1426 utils/num_mix;
#X obj -1081 1467 min 10;
#X obj 60 1982 *~;
#X obj 84 2039 utils/sig_mix~;
#X obj 292 1919 r mod_volume_factor;
#X obj 292 1948 abs;
#X obj 292 1977 / 100;
#X obj 447 1919 r mod_volume;
#X obj 447 1948 t b f;
#X obj 292 2010 *;
#X obj -1081 1297 dbtorms;
#X obj 174 1948 dbtorms;
#X text 148 1841 Audio ready for modulations.;
#X obj 124 2721 filter_wrapper~;
#X obj 467 2015 r mod_vocoder_channels;
#X obj 467 2053 == 0;
#X obj 528 2053 == 1;
#X obj 582 2053 == 2;
#X obj 9 2039 *~ 1;
#X obj 467 2085 *;
#X obj 529 2085 *;
#X obj 582 2085 *;
#X obj 650 2015 r mod_tone;
#X obj 650 2044 t b f;
#X obj 84 2306 utils/sig_mix~;
#X obj -845 849 max;
#X obj -845 887 max;
#X obj -647 788 r mod_tone;
#X obj -1208 1467 r \$0-clear_buffer;
#X obj -1420 919 > 0;
#X obj -1081 1525 line~;
#X msg -1081 1500 \$1 50;
#X msg -1208 1498 1 50;
#X obj 1304 480 * 1;
#X obj -1474 1291 r \$0-clear_buffer;
#X msg -1472 1332 1;
#X obj -1508 1416 spigot 1;
#X obj -1390 1369 t b f;
#X msg -1508 1332 0;
#X obj -1508 1456 -;
#X obj -1403 1508 r mod_pitch;
#X obj -1403 1582 r mod_pitch_factor;
#X obj -1403 1611 / 100;
#X obj -1335 1326 moses 128;
#X obj -1240 1338 moses 128;
#X obj -1474 1369 int;
#X obj -1580 1525 * -1;
#X obj -1580 1561 + 1;
#X obj -1508 1691 * 0;
#X obj -1508 1593 * 0;
#X obj -1508 1639 * 0;
#X obj -1509 1809 pow;
#X obj -1508 1778 2;
#X obj -1508 1720 / 12;
#X obj -1508 1749 t b f;
#X obj -1509 1901 s \$0-mod_pitch_result;
#X obj 1402 468 r \$0-mod_pitch_result;
#X obj 1304 520 * 1;
#X obj 1402 495 t b f;
#X obj -1403 1541 t b f;
#X obj -1403 1640 t b f;
#X obj -1580 1593 t b f;
#X obj 181 3270 loadbang;
#X obj 256 3314 1;
#X obj 181 3314 0;
#X obj 181 3343 pipe 1000;
#X obj 181 3407 spigot;
#X obj 242 3373 < 0.5;
#X text 181 3241 Warm up.;
#X obj 181 3373 t f b;
#X msg -1509 1842 \$1 50;
#X obj -1509 1871 line;
#X obj -1642 1809 r \$0-clear_buffer;
#X msg -1642 1840 0 50;
#X obj -1261 887 <~ 1;
#X obj -1261 916 lop~ 10;
#X obj -1276 1127 *~;
#X text -1587 1258 Get the pitch of the note beginning., f 32;
#X msg 2218 1689 0;
#X obj 2248 1660 int;
#X msg 467 2111 all \$1;
#X msg 529 2111 all \$1;
#X msg 582 2111 all \$1;
#X obj 84 2187 clone channel_vocoder_unit~ 20 4 20 10;
#X obj 354 2187 clone channel_vocoder_unit~ 40 2 40 15;
#X obj 637 2187 clone channel_vocoder_unit~ 80 1 80 20;
#X obj -1335 1297 moses 0.5;
#X obj -1240 1309 moses 0.5;
#X msg -1241 1280 \$1;
#X obj -1508 1500 moses -4;
#X obj -1508 1529 moses 4;
#X obj -1335 1251 fiddle~ 512, f 24;
#X msg 2247 1689 2 \$1;
#X obj 1832 1700 *~ 1;
#X obj 2387 1518 r \$0-clear_buffer;
#X obj 2162 1632 *~;
#X obj 2251 1234 t b;
#X text -529 -145 Sequence of important events for making a sound:;
#X text -496 -100 1 - Set velocity (\$0-note_velocity);
#X text -471 -77 1b - Delay the velocity signal when needed (\$0-adjusted_velocity);
#X text -496 -53 2 - Drive ADSR envelope with velocity;
#X text -496 -6 3 - Set pitch (\$0-note_pitch);
#X text -496 17 4 - Calculate pitch changes (\$0-adjusted_pitch/freq);
#X text -496 40 5 - Generate onset signal (\$0-note_onset);
#X text -471 62 5b - Delay the signal when needed (\$0-adjusted_onset);
#X text -529 -124 For each note-on event:;
#X text -496 108 6b - Drive playback curve for audio sample;
#X text 436 125 \$0-note_onset carries the pitch when the note started. This is used for determining the sample length.;
#X text -472 -33 2b - DSP on/off status is controlled by ADSR;
#X text -529 180 For each note-off event:;
#X text -496 209 1 - Set velocity (\$0-note_velocity);
#X text -471 232 1b - Delay the velocity signal when needed (\$0-adjusted_velocity);
#X text -496 256 2 - Drive ADSR envelope with velocity;
#X text -496 132 7- Mark the status as playing (\$0-playing) that enables output;
#X text -496 327 3 - Generate offset signal (\$0-note_offset);
#X text -496 348 4 - Calculate note length if in the delayed mode;
#X obj 1693 152 r \$0-playing;
#X obj 1796 152 r sound_counter;
#X obj 1785 301 s sound_counter;
#X obj 1693 188 else/above 0.5;
#X obj 1693 220 1;
#X obj 1767 220 -1;
#X obj 1785 264 + 0;
#X obj 1573 194 > 0;
#X obj 1573 220 t b f;
#X obj 1477 231 * 1;
#X obj 2162 1567 granular_fx_2nd~ \$0-granular_delay_line;
#X obj 401 3102 t f f f;
#X obj 306 3139 else/above 0.5;
#X text -471 280 2b - Mark the status as not playing (\$0-playing) that disables output;
#X text -471 301 2c - DSP on/off status is controlled by ADSR;
#X obj 2267 1595 * 0.5;
#X obj 90 380 t b f b;
#X obj 119 419 s \$0-clear_buffer;
#X obj 1702 1462 r \$0-clear_buffer;
#X obj 1702 1514 line~;
#X obj 1832 1543 *~;
#X obj 2683 1453 r \$0-clear_buffer;
#X obj 2683 1505 line~;
#X obj 2803 1552 *~;
#X text -496 84 6 - Clear buffers of synths/filters (\$0-clear_buffer);
#X msg 1702 1488 0 \, 1 50;
#X msg 2683 1479 0 \, 1 50;
#X obj 2248 1632 pipe 20;
#X obj 1400 364 line 0 2;
#X connect 1 0 319 2;
#X connect 2 0 319 3;
#X connect 3 0 331 0;
#X connect 4 0 319 5;
#X connect 5 0 35 1;
#X connect 7 0 22 0;
#X connect 8 0 112 0;
#X connect 8 0 114 0 64.................W....f0...vE....XM...XA...fdE...V....nWA..ff....vZ...HH....rF...YF....;
#X connect 8 0 217 0 32.................X....nf+++OF....J3+++uL....;
#X connect 9 0 12 0;
#X connect 9 0 314 0;
#X connect 10 0 332 0;
#X connect 11 0 112 3;
#X connect 12 0 8 0;
#X connect 13 0 30 1;
#X connect 14 0 31 1;
#X connect 15 0 235 0;
#X connect 16 0 18 0;
#X connect 17 0 18 0;
#X connect 17 1 18 1;
#X connect 18 0 19 0;
#X connect 19 0 27 0;
#X connect 19 0 28 0;
#X connect 20 0 19 0;
#X connect 20 1 19 1;
#X connect 21 0 40 0;
#X connect 22 0 79 0;
#X connect 23 0 334 0;
#X connect 24 0 26 0;
#X connect 25 0 268 0;
#X connect 26 0 25 0;
#X connect 26 1 25 1;
#X connect 27 0 28 1;
#X connect 28 0 112 2;
#X connect 29 0 9 1;
#X connect 30 0 12 1;
#X connect 31 0 8 1;
#X connect 32 0 35 0;
#X connect 33 0 34 1;
#X connect 34 0 35 2;
#X connect 35 0 9 0;
#X connect 36 0 37 0;
#X connect 36 0 38 0;
#X connect 37 0 5 0;
#X connect 38 0 39 0;
#X connect 39 0 32 0;
#X connect 40 0 41 0;
#X connect 41 0 42 0;
#X connect 41 1 43 1;
#X connect 42 0 43 0;
#X connect 43 0 20 0;
#X connect 44 0 112 1;
#X connect 49 0 75 0;
#X connect 50 0 113 0;
#X connect 51 0 113 2;
#X connect 53 0 54 0;
#X connect 53 1 54 1;
#X connect 54 0 55 0;
#X connect 55 0 61 0;
#X connect 55 0 62 0;
#X connect 56 0 55 0;
#X connect 56 1 55 1;
#X connect 57 0 63 0;
#X connect 58 0 335 0;
#X connect 59 0 69 0;
#X connect 60 0 59 0;
#X connect 60 1 59 1;
#X connect 61 0 62 1;
#X connect 62 0 113 1;
#X connect 63 0 64 0;
#X connect 64 0 65 0;
#X connect 64 1 66 1;
#X connect 65 0 66 0;
#X connect 66 0 56 0;
#X connect 67 0 54 0;
#X connect 68 0 60 0;
#X connect 69 0 61 0;
#X connect 69 1 61 1;
#X connect 70 0 71 0;
#X connect 71 0 76 0;
#X connect 72 0 73 0;
#X connect 73 0 71 1;
#X connect 74 0 70 0;
#X connect 75 0 81 0;
#X connect 76 0 292 0;
#X connect 78 0 79 0;
#X connect 78 1 79 1;
#X connect 79 0 112 5;
#X connect 80 0 81 0;
#X connect 80 1 81 1;
#X connect 81 0 113 3;
#X connect 82 0 78 0;
#X connect 83 0 80 0;
#X connect 84 0 292 0;
#X connect 85 0 171 0;
#X connect 86 0 94 0;
#X connect 87 0 114 3;
#X connect 88 0 89 0;
#X connect 89 0 91 0;
#X connect 90 0 91 0;
#X connect 90 1 91 1;
#X connect 91 0 114 5;
#X connect 91 0 99 3;
#X connect 92 0 90 0;
#X connect 93 0 94 0;
#X connect 93 1 94 1;
#X connect 94 0 127 1;
#X connect 95 0 495 1;
#X connect 96 0 95 0;
#X connect 97 0 93 0;
#X connect 98 0 67 0;
#X connect 99 0 100 0;
#X connect 100 0 538 0;
#X connect 101 0 103 0;
#X connect 101 0 333 0;
#X connect 102 0 99 1;
#X connect 102 0 104 0;
#X connect 103 0 105 0;
#X connect 104 0 100 2;
#X connect 105 0 104 0;
#X connect 105 1 104 1;
#X connect 107 0 495 0;
#X connect 108 0 109 0;
#X connect 108 0 111 1;
#X connect 109 0 110 0;
#X connect 110 0 107 1;
#X connect 111 0 528 0;
#X connect 112 0 315 0;
#X connect 113 0 84 0;
#X connect 114 0 317 0;
#X connect 115 0 161 0;
#X connect 116 0 117 0;
#X connect 116 1 117 1;
#X connect 117 0 119 0;
#X connect 118 0 116 0;
#X connect 119 0 528 3;
#X connect 120 0 121 0;
#X connect 121 0 119 0;
#X connect 121 1 119 1;
#X connect 122 0 124 0;
#X connect 123 0 124 0;
#X connect 123 1 124 1;
#X connect 124 0 528 1;
#X connect 125 0 123 0;
#X connect 126 0 127 2;
#X connect 127 0 114 1;
#X connect 128 0 168 0;
#X connect 129 0 131 0;
#X connect 130 0 127 0;
#X connect 130 0 160 0;
#X connect 131 0 132 0;
#X connect 131 1 130 1;
#X connect 132 0 130 0;
#X connect 133 0 114 2;
#X connect 134 0 528 2;
#X connect 134 0 533 0;
#X connect 136 0 148 1;
#X connect 136 0 147 0;
#X connect 137 0 141 0;
#X connect 138 0 139 0;
#X connect 138 1 139 1;
#X connect 139 0 136 2;
#X connect 139 0 147 3;
#X connect 140 0 138 0;
#X connect 141 0 139 0;
#X connect 142 0 136 1;
#X connect 143 0 145 0;
#X connect 144 0 145 0;
#X connect 144 1 145 1;
#X connect 145 0 160 1;
#X connect 146 0 144 0;
#X connect 147 0 148 0;
#X connect 148 0 541 0;
#X connect 149 0 151 0;
#X connect 149 0 147 2;
#X connect 150 0 152 0;
#X connect 150 0 147 1;
#X connect 151 0 153 0;
#X connect 152 0 148 2;
#X connect 153 0 152 0;
#X connect 153 1 152 1;
#X connect 154 0 495 0;
#X connect 155 0 156 0;
#X connect 155 0 158 1;
#X connect 156 0 157 0;
#X connect 157 0 154 1;
#X connect 158 0 528 0;
#X connect 159 0 160 2;
#X connect 160 0 136 0;
#X connect 161 0 117 0;
#X connect 162 0 336 0;
#X connect 163 0 167 0;
#X connect 164 0 169 0;
#X connect 165 0 166 0;
#X connect 166 0 163 0;
#X connect 167 0 168 0;
#X connect 167 1 168 1;
#X connect 168 0 129 0;
#X connect 169 0 166 0;
#X connect 169 1 166 1;
#X connect 170 0 163 0;
#X connect 170 1 163 1;
#X connect 171 0 84 1;
#X connect 173 0 435 0;
#X connect 174 0 175 0;
#X connect 175 0 435 0;
#X connect 175 1 435 1;
#X connect 176 0 177 0;
#X connect 180 0 185 1;
#X connect 181 0 182 2;
#X connect 181 0 188 0;
#X connect 181 0 189 0;
#X connect 182 0 184 0;
#X connect 183 0 527 0;
#X connect 184 0 546 0;
#X connect 185 0 179 0;
#X connect 186 0 254 0;
#X connect 187 0 173 0;
#X connect 188 0 186 1;
#X connect 189 0 187 1;
#X connect 190 0 32 1;
#X connect 191 0 197 0;
#X connect 191 1 192 0;
#X connect 191 1 193 0;
#X connect 191 1 198 0;
#X connect 193 0 195 0;
#X connect 197 0 247 0;
#X connect 198 0 197 1;
#X connect 199 0 191 0;
#X connect 200 0 202 0;
#X connect 201 0 203 0;
#X connect 209 0 113 4;
#X connect 210 0 112 6;
#X connect 216 0 217 3;
#X connect 217 0 318 0;
#X connect 218 0 217 2;
#X connect 219 0 217 1;
#X connect 220 0 221 0;
#X connect 221 0 223 0;
#X connect 222 0 223 0;
#X connect 222 1 223 1;
#X connect 223 0 217 5;
#X connect 224 0 222 0;
#X connect 225 0 292 0;
#X connect 226 0 227 0;
#X connect 227 0 225 1;
#X connect 228 0 229 0;
#X connect 229 0 225 0;
#X connect 230 0 234 0;
#X connect 231 0 232 0;
#X connect 231 1 232 1;
#X connect 232 0 229 1;
#X connect 233 0 231 0;
#X connect 234 0 232 0;
#X connect 235 0 287 1;
#X connect 236 0 239 0;
#X connect 237 0 238 0;
#X connect 238 0 240 0;
#X connect 239 0 240 1;
#X connect 240 0 242 0;
#X connect 241 0 283 0;
#X connect 242 0 235 0;
#X connect 242 1 235 1;
#X connect 243 0 204 0;
#X connect 244 0 205 0;
#X connect 247 0 194 0;
#X connect 247 1 196 0;
#X connect 248 0 136 3;
#X connect 249 0 25 0;
#X connect 250 0 17 0;
#X connect 251 0 53 0;
#X connect 252 0 59 0;
#X connect 253 0 182 1;
#X connect 254 0 182 0;
#X connect 254 1 253 0;
#X connect 256 0 275 0;
#X connect 257 0 534 0;
#X connect 258 0 217 6;
#X connect 259 0 210 0;
#X connect 260 0 209 0;
#X connect 261 0 498 0;
#X connect 262 0 248 0;
#X connect 263 0 266 0;
#X connect 265 0 319 0;
#X connect 266 0 264 0;
#X connect 267 0 255 0;
#X connect 268 0 27 0;
#X connect 268 1 27 1;
#X connect 269 0 266 1;
#X connect 270 0 267 1;
#X connect 270 0 278 1;
#X connect 270 0 290 1;
#X connect 271 0 272 0;
#X connect 272 0 185 0;
#X connect 272 0 186 0;
#X connect 272 0 187 0;
#X connect 273 0 272 1;
#X connect 274 0 278 0;
#X connect 274 0 290 0;
#X connect 275 0 267 0;
#X connect 275 1 274 0;
#X connect 276 0 288 0;
#X connect 277 0 282 0;
#X connect 278 0 279 0;
#X connect 279 0 289 0;
#X connect 281 0 282 1;
#X connect 282 0 287 0;
#X connect 282 0 369 0;
#X connect 283 0 238 0;
#X connect 283 1 238 1;
#X connect 285 0 286 0;
#X connect 286 0 287 2;
#X connect 286 0 369 2;
#X connect 287 0 36 1;
#X connect 288 0 274 1;
#X connect 289 0 277 1;
#X connect 290 0 277 0;
#X connect 291 0 321 0;
#X connect 292 0 395 0;
#X connect 292 0 404 0;
#X connect 292 0 405 1;
#X connect 293 0 291 0;
#X connect 294 0 293 2;
#X connect 294 0 415 6;
#X connect 295 0 338 0;
#X connect 296 0 339 0;
#X connect 297 0 340 0;
#X connect 298 0 176 0;
#X connect 298 0 178 0;
#X connect 298 1 299 0;
#X connect 300 0 303 0;
#X connect 300 0 306 0;
#X connect 301 0 307 0;
#X connect 302 0 303 0;
#X connect 302 1 303 1;
#X connect 303 0 415 1;
#X connect 304 0 306 0;
#X connect 304 1 306 1;
#X connect 305 0 304 0;
#X connect 306 0 310 0;
#X connect 307 0 302 0;
#X connect 308 0 309 1;
#X connect 309 0 313 0;
#X connect 310 0 415 4;
#X connect 311 0 312 0;
#X connect 312 0 310 0;
#X connect 312 1 310 1;
#X connect 313 0 311 0;
#X connect 314 0 316 0;
#X connect 315 0 84 0;
#X connect 316 0 315 1;
#X connect 316 0 317 1;
#X connect 316 0 318 1;
#X connect 317 0 99 0;
#X connect 317 0 100 1;
#X connect 318 0 225 0;
#X connect 319 0 291 1;
#X connect 319 1 529 0;
#X connect 321 0 0 0;
#X connect 322 0 321 1;
#X connect 323 0 324 0;
#X connect 325 0 497 1;
#X connect 326 0 320 0;
#X connect 328 0 309 0;
#X connect 329 0 415 7;
#X connect 330 0 329 0;
#X connect 331 0 319 4;
#X connect 332 0 29 1;
#X connect 333 0 99 2;
#X connect 334 0 28 2;
#X connect 335 0 62 2;
#X connect 336 0 170 0;
#X connect 338 0 415 2;
#X connect 339 0 415 3;
#X connect 340 0 415 5;
#X connect 343 0 352 1;
#X connect 344 0 389 0;
#X connect 345 0 346 0;
#X connect 345 0 476 0;
#X connect 346 0 344 0;
#X connect 347 0 345 1;
#X connect 348 0 346 1;
#X connect 349 0 344 1;
#X connect 350 0 352 0;
#X connect 351 0 352 2;
#X connect 352 0 345 0;
#X connect 353 0 354 0;
#X connect 353 0 355 0;
#X connect 354 0 343 0;
#X connect 355 0 356 0;
#X connect 356 0 350 0;
#X connect 357 0 350 1;
#X connect 358 0 369 1;
#X connect 359 0 362 0;
#X connect 360 0 361 0;
#X connect 361 0 363 0;
#X connect 362 0 363 1;
#X connect 363 0 366 0;
#X connect 364 0 368 0;
#X connect 365 0 347 0;
#X connect 365 0 348 0;
#X connect 365 0 349 0;
#X connect 365 0 351 0;
#X connect 365 0 353 0;
#X connect 365 0 357 0;
#X connect 365 1 364 0;
#X connect 366 0 358 0;
#X connect 366 1 358 1;
#X connect 367 0 365 0;
#X connect 368 0 361 0;
#X connect 368 1 361 1;
#X connect 369 0 353 1;
#X connect 370 0 347 1;
#X connect 371 0 358 0;
#X connect 372 0 351 1;
#X connect 373 0 370 0;
#X connect 374 0 348 1;
#X connect 375 0 349 1;
#X connect 377 0 389 2;
#X connect 378 0 389 1;
#X connect 379 0 389 5;
#X connect 380 0 389 6;
#X connect 381 0 382 0;
#X connect 382 0 379 0;
#X connect 383 0 389 3;
#X connect 384 0 427 0;
#X connect 385 0 386 0;
#X connect 386 0 427 0;
#X connect 386 1 427 1;
#X connect 387 0 428 0;
#X connect 387 1 428 1;
#X connect 388 0 379 0;
#X connect 388 0 393 0;
#X connect 388 1 379 1;
#X connect 388 1 393 1;
#X connect 389 0 478 0;
#X connect 390 0 391 0;
#X connect 391 0 394 0;
#X connect 392 0 431 0;
#X connect 393 0 391 1;
#X connect 394 0 420 0;
#X connect 394 0 493 0;
#X connect 395 0 413 0;
#X connect 397 0 399 0;
#X connect 398 0 402 1;
#X connect 399 0 398 0;
#X connect 399 1 398 1;
#X connect 400 0 402 2;
#X connect 401 0 400 0;
#X connect 402 0 403 0;
#X connect 403 0 433 0;
#X connect 404 0 405 0;
#X connect 405 0 426 1;
#X connect 405 0 485 0;
#X connect 405 0 486 0;
#X connect 405 0 487 0;
#X connect 406 0 407 0;
#X connect 407 0 408 0;
#X connect 408 0 411 0;
#X connect 409 0 410 0;
#X connect 410 0 411 0;
#X connect 410 1 411 1;
#X connect 411 0 405 2;
#X connect 412 0 402 0;
#X connect 412 0 398 0;
#X connect 413 0 396 0;
#X connect 415 0 293 0;
#X connect 416 0 417 0;
#X connect 416 0 418 0;
#X connect 416 0 419 0;
#X connect 417 0 421 0;
#X connect 418 0 422 0;
#X connect 419 0 423 0;
#X connect 420 0 485 1;
#X connect 420 0 486 1;
#X connect 420 0 487 1;
#X connect 421 0 482 0;
#X connect 422 0 483 0;
#X connect 423 0 484 0;
#X connect 424 0 425 0;
#X connect 424 0 426 2;
#X connect 425 0 421 0;
#X connect 425 0 422 0;
#X connect 425 0 423 0;
#X connect 425 1 421 1;
#X connect 425 1 422 1;
#X connect 425 1 423 0;
#X connect 425 1 423 1;
#X connect 426 0 293 1;
#X connect 426 0 415 0;
#X connect 427 0 428 0;
#X connect 428 0 388 0;
#X connect 429 0 387 0;
#X connect 430 0 434 0;
#X connect 431 0 393 0;
#X connect 432 0 404 1;
#X connect 433 0 432 0;
#X connect 434 0 432 0;
#X connect 435 0 459 0;
#X connect 436 0 437 0;
#X connect 437 0 447 0;
#X connect 438 0 441 1;
#X connect 439 0 440 0;
#X connect 439 1 438 0;
#X connect 440 0 447 0;
#X connect 441 0 491 0;
#X connect 442 0 461 0;
#X connect 443 0 444 0;
#X connect 444 0 462 0;
#X connect 445 0 439 0;
#X connect 446 0 441 0;
#X connect 447 0 438 1;
#X connect 447 0 448 0;
#X connect 448 0 449 0;
#X connect 449 0 463 0;
#X connect 450 0 455 0;
#X connect 451 0 452 0;
#X connect 452 0 450 0;
#X connect 453 0 472 0;
#X connect 454 0 453 0;
#X connect 455 0 456 0;
#X connect 456 0 454 0;
#X connect 456 1 453 1;
#X connect 458 0 460 0;
#X connect 459 0 298 0;
#X connect 460 0 459 0;
#X connect 460 1 459 1;
#X connect 461 0 451 0;
#X connect 461 1 451 1;
#X connect 462 0 452 0;
#X connect 462 1 452 1;
#X connect 463 0 450 0;
#X connect 463 1 450 1;
#X connect 464 0 465 0;
#X connect 464 0 466 0;
#X connect 465 0 342 0;
#X connect 466 0 467 0;
#X connect 467 0 471 0;
#X connect 468 0 342 0;
#X connect 469 0 468 1;
#X connect 471 0 468 0;
#X connect 471 1 469 0;
#X connect 472 0 473 0;
#X connect 473 0 457 0;
#X connect 474 0 475 0;
#X connect 475 0 473 0;
#X connect 476 0 477 0;
#X connect 477 0 478 1;
#X connect 478 0 394 1;
#X connect 480 0 325 0;
#X connect 481 0 494 0;
#X connect 482 0 485 2;
#X connect 483 0 486 2;
#X connect 484 0 487 2;
#X connect 485 0 426 0;
#X connect 486 0 426 0;
#X connect 487 0 426 0;
#X connect 488 1 445 0;
#X connect 489 1 446 0;
#X connect 490 0 489 0;
#X connect 491 1 492 0;
#X connect 492 0 451 0;
#X connect 493 0 488 0;
#X connect 493 2 490 0;
#X connect 493 3 412 0;
#X connect 494 0 325 0;
#X connect 495 0 292 0 32.................j....DU9++OI....Qk+++Cc....;
#X connect 496 0 528 5;
#X connect 497 0 495 0;
#X connect 498 0 114 6;
#X connect 498 0 480 0;
#X connect 498 0 528 4;
#X connect 498 0 545 0;
#X connect 518 0 521 0;
#X connect 519 0 524 1;
#X connect 519 0 525 0;
#X connect 521 0 522 0;
#X connect 521 1 523 0;
#X connect 522 0 524 0;
#X connect 523 0 524 0;
#X connect 524 0 520 0;
#X connect 525 0 526 0;
#X connect 526 0 527 0;
#X connect 526 1 527 1;
#X connect 527 0 253 1;
#X connect 528 0 497 0;
#X connect 529 0 530 0;
#X connect 529 1 469 0;
#X connect 529 1 342 0;
#X connect 529 2 326 0;
#X connect 530 1 327 0;
#X connect 533 0 481 1;
#X connect 534 0 29 0;
#X connect 534 0 30 0;
#X connect 534 0 31 0;
#X connect 534 0 34 0;
#X connect 534 0 36 0;
#X connect 534 0 190 0;
#X connect 534 0 323 0;
#X connect 534 1 241 0;
#X connect 534 2 535 0;
#X connect 536 0 543 0;
#X connect 537 0 538 1;
#X connect 538 0 107 0;
#X connect 538 0 111 0;
#X connect 539 0 544 0;
#X connect 540 0 541 1;
#X connect 541 0 158 0;
#X connect 541 0 154 0;
#X connect 543 0 537 0;
#X connect 544 0 540 0;
#X connect 545 0 481 0;
#X connect 546 0 173 0;
