#N canvas 827 239 527 327 12;
#X obj 114 525 +~;
#X obj 338 525 +~;
#X obj 350 645 *~;
#X obj 232 91 phasor~ 440, f 14;
#X obj 408 193 +~ 0.5;
#X obj 408 223 wrap~;
#X obj 369 146 phasor~ 20;
#X obj 199 525 utils/myhann~;
#X obj 443 525 utils/myhann~;
#X obj 127 845 outlet~;
#X obj 683 40 inlet is_active;
#X obj 128 645 *~;
#X obj 683 72 switch~;
#X obj 17 645 utils/myhann~;
#X obj 128 748 *~;
#X obj 114 320 *~;
#X obj 338 320 *~;
#X obj 232 320 /~;
#X obj 511 254 samplerate~;
#X obj 232 362 *~ 1000;
#X obj 511 220 r pd-dsp-started;
#X obj 114 589 delread4~ \$1;
#X obj 338 589 delread4~ \$1;
#X obj 232 40 inlet~ freq;
#X obj 338 40 inlet~ window;
#X obj 443 40 inlet~ grain_ms;
#X obj 232 146 *~;
#X obj 443 72 pow~ -1;
#X obj 443 101 *~ 1000;
#X obj 884 40 inlet reset_phase;
#X obj 884 69 t b;
#X obj 884 98 0;
#X obj 276 146 samphold~;
#X connect 0 0 21 0;
#X connect 1 0 22 0;
#X connect 2 0 14 0;
#X connect 3 0 13 0 32.................Y....nx+++eF....p7+++ag....;
#X connect 3 0 26 0;
#X connect 3 0 32 1;
#X connect 4 0 5 0;
#X connect 5 0 8 0;
#X connect 5 0 16 0;
#X connect 6 0 4 0;
#X connect 6 0 7 0;
#X connect 6 0 15 0;
#X connect 7 0 11 1;
#X connect 8 0 2 1;
#X connect 10 0 12 0;
#X connect 11 0 14 0;
#X connect 13 0 14 1;
#X connect 14 0 9 0;
#X connect 15 0 0 0;
#X connect 16 0 1 0;
#X connect 17 0 19 0;
#X connect 18 0 17 1;
#X connect 19 0 0 1;
#X connect 19 0 1 1;
#X connect 20 0 18 0;
#X connect 21 0 11 0;
#X connect 22 0 2 0;
#X connect 23 0 3 0;
#X connect 24 0 32 0;
#X connect 25 0 15 1;
#X connect 25 0 16 1;
#X connect 25 0 27 0;
#X connect 26 0 17 0;
#X connect 27 0 28 0;
#X connect 28 0 6 0;
#X connect 29 0 30 0;
#X connect 30 0 31 0;
#X connect 31 0 6 1;
#X connect 32 0 26 1;
