#N canvas 827 239 527 327 12;
#X obj 46 502 samphold~;
#X obj 45 581 +~;
#X obj 263 502 samphold~;
#X obj 269 581 +~;
#X obj 282 708 *~;
#X obj 163 147 phasor~ 440, f 14;
#X obj 298 310 +~ 0.5;
#X obj 300 348 wrap~;
#X obj 300 245 phasor~ 20;
#X obj 46 96 inlet~ playhead;
#X obj 482 96 inlet array_name;
#X msg 482 128 set \$1;
#X obj 130 581 utils/myhann~;
#X obj 374 581 utils/myhann~;
#X obj 58 901 outlet~;
#X obj 614 96 inlet is_active;
#X obj 59 701 *~;
#X obj 614 128 switch~;
#X obj 147 708 utils/myhann~;
#X obj 59 804 *~;
#X obj 45 645 tabread4~ \$1;
#X obj 269 645 tabread4~ \$1;
#X obj 163 96 inlet~ freq;
#X obj 269 96 inlet~ window;
#X obj 163 202 *~;
#X obj 374 96 inlet~ grain_ms;
#X obj 374 128 pow~ -1;
#X obj 374 157 *~ 1000;
#X obj 755 96 inlet reset_phase;
#X obj 755 125 t b;
#X obj 755 154 0;
#X obj 213 202 samphold~;
#X connect 0 0 1 0;
#X connect 1 0 20 0;
#X connect 2 0 3 0;
#X connect 3 0 21 0;
#X connect 4 0 19 0;
#X connect 5 0 18 0;
#X connect 5 0 24 0;
#X connect 5 0 31 1;
#X connect 6 0 7 0;
#X connect 7 0 2 1;
#X connect 7 0 13 0;
#X connect 8 0 0 1;
#X connect 8 0 6 0;
#X connect 8 0 12 0;
#X connect 9 0 0 0;
#X connect 9 0 2 0;
#X connect 10 0 11 0;
#X connect 11 0 20 0;
#X connect 11 0 21 0;
#X connect 12 0 16 1;
#X connect 13 0 4 1;
#X connect 15 0 17 0;
#X connect 16 0 19 0;
#X connect 18 0 19 1;
#X connect 19 0 14 0;
#X connect 20 0 16 0;
#X connect 21 0 4 0;
#X connect 22 0 5 0;
#X connect 23 0 31 0;
#X connect 24 0 1 1;
#X connect 24 0 3 1;
#X connect 25 0 26 0;
#X connect 26 0 27 0;
#X connect 27 0 8 0;
#X connect 28 0 29 0;
#X connect 29 0 30 0;
#X connect 30 0 8 1;
#X connect 31 0 24 1;
