#N canvas -11 0 3836 3161 12;
#N canvas 0 0 450 250 (subpatch) 0;
#X array main_sample 35235 float 0;
#X coords 0 1 35234 -1 200 140 1;
#X restore 217 11 graph;
#X obj 19 102 modules/sample_file_handler;
#X obj 19 78 modules/audio_in_handler;
#X obj 19 50 modules/note_in_handler;
#X obj 19 19 modules/cc_in_handler;
#X obj 819 197 -1;
#X obj 819 226 s last_pitch;
#X obj 819 141 else/above 0.5;
#X obj 1004 141 pow -1;
#X obj 1004 177 * 60000;
#X obj 1004 272 *;
#X obj 1073 177 r midi_delay_beat;
#X obj 1004 363 s midi_delay_ms;
#X obj 1004 326 *;
#X obj 1073 226 r main_stretch_mode;
#X obj 1073 256 == 2;
#X obj 1073 288 t b f;
#X obj 1029 207 t b f;
#X obj 1034 244 int;
#N canvas 0 0 450 250 (subpatch) 0;
#X array sub_sample 165292 float 0;
#X coords 0 1 165291 -1 200 140 1;
#X restore 449 11 graph;
#X obj 819 46 r playhead;
#X obj 1093 46 loadbang;
#X msg 1093 75 audio latency 64;
#X obj 1093 104 send camomile;
#X obj 17 177 modules/camomile/param.change;
#X obj 17 215 modules/camomile/gui.link 1 global_volume;
#X obj 17 241 modules/camomile/gui.link 2 global_pan;
#X obj 19 280 modules/camomile/gui.link 3 attack;
#X obj 19 307 modules/camomile/gui.link 4 decay;
#X obj 19 331 modules/camomile/gui.link 5 sustain;
#X obj 19 357 modules/camomile/gui.link 6 release;
#X obj 20 391 modules/camomile/gui.link 7 portamento;
#X obj 20 447 modules/camomile/gui.link 9 cc_input_enabled;
#X obj 20 419 modules/camomile/gui.link 8 legato;
#X obj 19 558 modules/camomile/gui.link 10 main_source;
#X obj 19 609 modules/camomile/gui.link 12 main_start_position;
#X obj 19 634 modules/camomile/gui.link 13 main_end_position;
#X obj 19 660 modules/camomile/gui.link 14 main_time_stretch;
#X obj 19 685 modules/camomile/gui.link 15 main_time_curve;
#X obj 19 710 modules/camomile/gui.link 16 main_loop;
#X obj 19 734 modules/camomile/gui.link 17 main_stretch_mode;
#X obj 19 756 modules/camomile/gui.link 18 midi_delay_beat;
#X obj 357 177 modules/camomile/gui.link 19 granular_enabled;
#X obj 357 200 modules/camomile/gui.link 20 granular_volume;
#X obj 357 224 modules/camomile/gui.link 21 granular_grain;
#X obj 357 249 modules/camomile/gui.link 22 granular_denoise;
#X obj 357 273 modules/camomile/gui.link 23 granular_phase_bash;
#X obj 357 294 modules/camomile/gui.link 24 granular_formant_shift;
#X obj 358 316 modules/camomile/gui.link 25 granular_formant_preservation;
#X obj 357 366 modules/camomile/gui.link 26 wavetable_enabled;
#X obj 357 389 modules/camomile/gui.link 27 wavetable_volume;
#X obj 357 413 modules/camomile/gui.link 28 wavetable_grain;
#X obj 356 438 modules/camomile/gui.link 29 wavetable_formant_shift;
#X obj 357 460 modules/camomile/gui.link 30 wavetable_formant_preservation;
#X obj 357 494 modules/camomile/gui.link 31 untuned_enabled;
#X obj 357 517 modules/camomile/gui.link 32 untuned_volume;
#X obj 357 558 modules/camomile/gui.link 33 sub_source;
#X obj 357 584 modules/camomile/gui.link 34 sub_start_position;
#X obj 357 609 modules/camomile/gui.link 35 sub_end_position;
#X obj 356 634 modules/camomile/gui.link 36 sub_time_stretch;
#X obj 357 660 modules/camomile/gui.link 37 sub_time_curve;
#X obj 358 685 modules/camomile/gui.link 38 sub_loop;
#X obj 357 710 modules/camomile/gui.link 39 sub_auto_stretch;
#X obj 703 558 modules/camomile/gui.link 40 mod_volume;
#X obj 704 584 modules/camomile/gui.link 41 mod_volume_factor;
#X obj 704 609 modules/camomile/gui.link 42 mod_pitch;
#X obj 703 634 modules/camomile/gui.link 43 mod_pitch_factor;
#X obj 705 660 modules/camomile/gui.link 44 mod_tone;
#X obj 703 685 modules/camomile/gui.link 45 mod_vocoder_channels;
#X obj 1070 558 modules/camomile/gui.link 46 filter_enabled;
#X obj 1073 584 modules/camomile/gui.link 47 comb_filt_factor;
#X obj 1070 609 modules/camomile/gui.link 48 comb_filt_mix;
#X obj 1073 634 modules/camomile/gui.link 49 octave_doubler;
#X obj 1074 660 modules/camomile/gui.link 50 lop_filt_factor;
#X obj 1073 685 modules/camomile/gui.link 51 lop_filt_mix;
#X obj 1073 710 modules/camomile/gui.link 52 lop_pluck;
#X obj 1073 756 modules/camomile/gui.link 53 gui_language;
#X obj 1283 46 r gui_language;
#X obj 1283 75 route 0 1;
#X obj 1303 162 lang/chs_language_pack;
#X obj 1283 119 lang/en_language_pack;
#X text 815 14 Playhead messages from DAW.;
#X obj 1514 46 r save;
#X obj 1514 75 t b b, f 40;
#X obj 1514 207 message;
#X obj 1514 162 spigot;
#X obj 1540 130 r main_sample_length;
#X obj 1580 162 r main_sample_path;
#X obj 1514 265 list prepend save;
#X obj 1514 294 list trim;
#X obj 1514 323 s camomile;
#X obj 1514 376 r load;
#X obj 1514 236 list prepend 0;
#X obj 1514 405 route 0 1, f 40;
#X obj 1514 490 s main_sample_path;
#X obj 1775 207 message;
#X obj 1775 162 spigot;
#X obj 1775 265 list prepend save;
#X obj 1775 294 list trim;
#X obj 1775 323 s camomile;
#X obj 1801 130 r sub_sample_length;
#X obj 1841 162 r sub_sample_path;
#X obj 1775 236 list prepend 1;
#X obj 1642 490 s sub_sample_path;
#X obj 1514 450 modules/utils/l2s;
#X obj 1642 450 modules/utils/l2s;
#X text 1514 14 Save/load sample paths to/from DAW;
#X obj 19 584 modules/camomile/gui.link 11 main_base_pitch;
#X obj 819 75 route playing recording bpm;
#X msg 1283 281 休憩中よ~, f 19;
#X obj 1283 310 lang/show_hint;
#X obj 1283 217 r mouseexit_atom_number;
#X obj 1313 249 r mouseexit_label;
#X connect 5 0 6 0;
#X connect 7 0 5 0;
#X connect 7 1 5 0;
#X connect 8 0 9 0;
#X connect 9 0 10 0;
#X connect 10 0 13 0;
#X connect 11 0 17 0;
#X connect 13 0 12 0;
#X connect 14 0 15 0;
#X connect 15 0 16 0;
#X connect 16 0 13 0;
#X connect 16 1 13 1;
#X connect 17 0 10 0;
#X connect 17 1 18 0;
#X connect 18 0 10 1;
#X connect 20 0 108 0;
#X connect 21 0 22 0;
#X connect 22 0 23 0;
#X connect 77 0 78 0;
#X connect 78 0 80 0;
#X connect 78 1 79 0;
#X connect 82 0 83 0;
#X connect 83 0 85 0;
#X connect 83 1 96 0;
#X connect 84 0 92 0;
#X connect 85 0 84 0;
#X connect 86 0 85 1;
#X connect 87 0 84 1;
#X connect 88 0 89 0;
#X connect 89 0 90 0;
#X connect 91 0 93 0;
#X connect 92 0 88 0;
#X connect 93 0 104 0;
#X connect 93 1 105 0;
#X connect 95 0 102 0;
#X connect 96 0 95 0;
#X connect 97 0 98 0;
#X connect 98 0 99 0;
#X connect 100 0 96 1;
#X connect 101 0 95 1;
#X connect 102 0 97 0;
#X connect 104 0 94 0;
#X connect 105 0 103 0;
#X connect 108 0 7 0;
#X connect 108 2 8 0;
#X connect 109 0 110 0;
#X connect 111 0 109 0;
#X connect 112 0 109 0;
#X coords 0 3161 1 3160 1350 460 0;
