#N canvas 827 239 1456 814 12;
#X obj 1104 247 cnv 15 245 74 empty empty empty 20 12 0 14 #f1f4e2 #343434 0;
#X obj 1104 159 cnv 15 245 82 empty empty empty 20 12 0 14 #f1f4e2 #343434 0;
#X obj 1104 51 cnv 15 245 103 empty empty empty 20 12 0 14 #f1f4e2 #343434 0;
#X obj 887 51 cnv 15 209 270 empty empty empty 20 12 0 14 #fce0bc #343434 0;
#X obj 887 324 cnv 15 462 137 empty empty empty 20 12 0 14 #ecfcb8 #343434 0;
#X obj 482 389 cnv 15 401 40 empty empty empty 20 12 0 14 #d4e8f4 #343434 0;
#X obj 482 258 cnv 15 401 125 empty empty empty 20 12 0 14 #c4e0fc #343434 0;
#X obj 482 51 cnv 15 401 203 empty empty empty 20 12 0 14 #90ecfc #343434 0;
#X obj 8 223 cnv 15 233 238 empty empty empty 20 12 0 14 #a8fcc4 #343434 0;
#X obj 246 113 cnv 15 232 348 empty empty empty 20 12 0 14 #fce0bc #343434 0;
#X obj 8 113 cnv 15 233 107 empty empty empty 20 12 0 14 #fce0bc #343434 0;
#X obj 8 51 cnv 15 470 57 empty empty empty 20 12 0 14 #fcb8d4 #343434 0;
#N canvas 0 0 450 250 (subpatch) 0;
#X array main_sample 74880 float 0;
#X coords 0 1 74879 -1 200 140 1;
#X restore 27 665 graph;
#X floatatom 120 234 8 0 3000 0 attack attack-r attack 0;
#X floatatom 120 264 8 0 8000 0 decay decay-r decay 0;
#X text 181 233 ms;
#X floatatom 120 294 8 0 100 0 sustain sustain-r sustain 0;
#X floatatom 120 324 8 0 3000 0 release release-r release 0;
#X text 181 263 ms;
#X text 181 323 ms;
#X floatatom 122 67 8 -50 6 0 global_volume global_volume-r global_volume 0;
#X text 181 68 dB;
#X obj 122 125 vradio 20 1 0 4 main_source main_source-r main_source -100 0 0 16 #e4e4e4 #4c4c4c #343434 0;
#X text 153 189 Side Chain;
#X text 152 166 Main Chain;
#X floatatom 380 198 8 0 100 0 main_start_position main_start_position-r main_start_position 0;
#X floatatom 380 231 8 0 100 0 main_end_position main_end_position-r main_end_position 0;
#X text 443 199 %;
#X text 443 231 %;
#X floatatom 380 263 8 25 400 0 main_time_stretch main_time_stretch-r main_time_stretch 0;
#X text 443 264 %;
#X floatatom 380 295 8 25 400 0 main_time_curve main_time_curve-r main_time_curve 0;
#X floatatom 706 302 7 20 200 0 wavetable_grain wavetable_grain-r wavetable_grain 0;
#X text 762 301 ms;
#X floatatom 705 333 7 -12 12 0 wavetable_formant_shift wavetable_formant_shift-r wavetable_formant_shift 0;
#X obj 30 583 modules/sample_file_handler;
#X floatatom 380 135 8 36 84 0 main_base_pitch main_base_pitch-r main_base_pitch 0;
#X text 275 164 semitone (compared to C4);
#X floatatom 705 363 7 0 100 0 wavetable_formant_preservation wavetable_formant_preservation-r wavetable_formant_preservation 0;
#X obj 144 19 bng 21 250 50 0 gui_reset_parameters empty empty 0 -11 0 12 #fcfcfc #000000 #000000;
#X obj 27 1009 loadbang;
#X obj 27 1135 bng 25 250 50 0 empty empty empty 17 7 0 10 #e4e4e4 #4c4c4c #343434;
#X msg 28 1190 0;
#X obj 28 1219 s main_source-r;
#X msg 26 1240 -3;
#X obj 28 1269 s global_volume-r;
#X obj 228 1213 s attack-r;
#X obj 228 1269 s sustain-r;
#X obj 228 1333 s decay-r;
#X msg 228 1360 100;
#X obj 228 1389 s release-r;
#X obj 410 1213 s main_start_position-r;
#X msg 407 1184 0;
#X msg 409 1360 100;
#X obj 409 1389 s main_end_position-r;
#X obj 407 1269 s main_time_stretch-r;
#X msg 409 1240 100;
#X obj 415 1445 s main_time_curve-r;
#X obj 648 1213 s wavetable_grain-r;
#X obj 650 1389 s wavetable_formant_shift-r;
#X obj 646 1269 s wavetable_formant_preservation-r;
#X msg 228 1304 1000;
#X msg 648 1184 75;
#X obj 380 330 tgl 25 0 main_loop main_loop-r main_loop -80 10 0 16 #e4e4e4 #4c4c4c #343434 0 1;
#X msg 413 1474 0;
#X obj 413 1503 s main_loop-r;
#X text 762 331 semitone;
#X obj 310 69 hsl 144 22 -100 100 0 0 global_pan global_pan-r global_pan -75 10 0 16 #e4e4e4 #4c4c4c #343434 0 0;
#X msg 650 1360 0;
#X obj 28 1327 s global_pan-r;
#X obj 610 265 tgl 25 0 wavetable_enabled wavetable_enabled-r wavetable_enabled -130 10 0 16 #e4e4e4 #4c4c4c #343434 0 1;
#X obj 648 1327 s wavetable_enabled-r;
#X obj 256 500 keyboard 16 80 6 2 0 0 empty empty;
#X obj 256 603 s emulated_note_in;
#X floatatom 793 265 6 0 100 0 wavetable_volume wavetable_volume-r wavetable_volume 0;
#X obj 650 1445 s wavetable_volume-r;
#X text 845 264 %;
#X msg 652 1416 100;
#X obj 30 559 modules/audio_in_handler;
#X obj 610 68 tgl 25 0 granular_enabled granular_enabled-r granular_enabled -120 10 0 16 #e4e4e4 #4c4c4c #343434 0 1;
#X floatatom 793 68 6 0 100 0 granular_volume granular_volume-r granular_volume 0;
#X text 845 67 %;
#X msg 940 1184 1;
#X obj 938 1213 s granular_enabled-r;
#X msg 650 1298 0;
#X msg 940 1240 100;
#X obj 938 1269 s granular_volume-r;
#X obj 30 531 modules/note_in_handler;
#X obj 30 500 modules/cc_in_handler;
#X floatatom 666 136 8 0 100 0 granular_denoise granular_denoise-r granular_denoise 0;
#X obj 666 168 tgl 25 0 granular_phase_bash granular_phase_bash-r granular_phase_bash -140 10 0 16 #e4e4e4 #4c4c4c #343434 0 1;
#X obj 940 1389 s granular_phase_bash-r;
#X msg 942 1360 0;
#X msg 944 1416 0;
#X obj 942 1445 s granular_denoise-r;
#X floatatom 699 199 8 -12 12 0 granular_formant_shift granular_formant_shift-r granular_formant_shift 0;
#X text 762 198 semitone;
#X msg 942 1474 0;
#X obj 942 1503 s granular_formant_shift-r;
#X floatatom 666 106 8 20 200 0 granular_grain granular_grain-r granular_grain 0;
#X text 729 105 ms;
#X obj 940 1327 s granular_grain-r;
#X msg 942 1298 75;
#X text 153 122 Saw;
#X text 153 144 WAV File;
#X floatatom 700 229 8 0 100 0 granular_formant_preservation granular_formant_preservation-r granular_formant_preservation 0;
#X msg 940 1531 0;
#X obj 940 1560 s granular_formant_preservation-r;
#X floatatom 122 364 8 0 3000 0 portamento portamento-r portamento 0;
#X text 181 365 ms;
#X obj 228 1485 s portamento-r;
#X msg 228 1456 0;
#X obj 1100 635 -1;
#X obj 1100 664 s last_pitch;
#X obj 1100 579 else/above 0.5;
#X obj 144 398 tgl 25 0 legato legato-r legato -50 10 0 16 #e4e4e4 #4c4c4c #343434 0 1;
#X msg 228 1515 0;
#X obj 228 1544 s legato-r;
#X obj 610 398 tgl 25 0 untuned_enabled untuned_enabled-r untuned_enabled -120 10 0 16 #e4e4e4 #4c4c4c #343434 0 1;
#X floatatom 793 398 6 0 100 0 untuned_volume untuned_volume-r untuned_volume 0;
#X text 845 397 %;
#X msg 1109 1240 100;
#X msg 1109 1184 0;
#X obj 1107 1213 s untuned_enabled-r;
#X obj 1107 1269 s untuned_volume-r;
#X obj 380 371 vradio 20 1 0 3 main_stretch_mode main_stretch_mode-r main_stretch_mode -135 0 0 16 #e4e4e4 #4c4c4c #343434 0;
#X text 408 370 Constant;
#X text 408 391 Classic;
#X text 408 412 Adaptive;
#X msg 415 1531 0;
#X obj 415 1560 s main_stretch_mode-r;
#X floatatom 409 435 8 1 8 0 midi_delay_beat midi_delay_beat-r midi_delay_beat 0;
#X msg 415 1591 4;
#X obj 1242 579 pow -1;
#X obj 1242 615 * 60000;
#X obj 1242 710 *;
#X obj 415 1620 s midi_delay_beat-r;
#X obj 1311 615 r midi_delay_beat;
#X obj 1242 801 s midi_delay_ms;
#X floatatom 1153 804 11 0 0 0 - - - 0;
#X obj 1242 764 *;
#X obj 1311 664 r main_stretch_mode;
#X obj 1311 694 == 2;
#X obj 1311 726 t b f;
#X obj 1267 645 t b f;
#X obj 1272 682 int;
#X obj 1005 330 tgl 25 0 filter_enabled filter_enabled-r filter_enabled -95 10 0 16 #e4e4e4 #4c4c4c #343434 0 1;
#X floatatom 1005 362 9 0 100 0 comb_filt_factor comb_filt_factor-r comb_filt_factor 0;
#X floatatom 1005 391 9 0 100 0 comb_filt_mix comb_filt_mix-r comb_filt_mix 0;
#X obj 1005 420 tgl 25 0 octave_doubler octave_doubler-r octave_doubler -105 10 0 16 #e4e4e4 #4c4c4c #343434 0 1;
#X floatatom 1200 362 9 0 20 0 lop_filt_factor lop_filt_factor-r lop_filt_factor 0;
#X floatatom 1200 391 9 0 100 0 lop_filt_mix lop_filt_mix-r lop_filt_mix 0;
#X floatatom 1200 420 9 0 3000 0 lop_pluck lop_pluck-r lop_pluck 0;
#X text 1272 419 ms;
#X msg 1293 1184 0;
#X obj 1291 1213 s filter_enabled-r;
#X obj 166 1135 bng 25 250 50 0 empty empty empty 17 7 0 10 #e4e4e4 #4c4c4c #343434;
#X obj 341 1135 bng 25 250 50 0 empty empty empty 17 7 0 10 #e4e4e4 #4c4c4c #343434;
#X obj 584 1135 bng 25 250 50 0 empty empty empty 17 7 0 10 #e4e4e4 #4c4c4c #343434;
#X obj 870 1135 bng 25 250 50 0 empty empty empty 17 7 0 10 #e4e4e4 #4c4c4c #343434;
#X obj 1070 1135 bng 25 250 50 0 empty empty empty 17 7 0 10 #e4e4e4 #4c4c4c #343434;
#X obj 1245 1135 bng 25 250 50 0 empty empty empty 17 7 0 10 #e4e4e4 #4c4c4c #343434;
#X obj 1293 1269 s comb_filt_factor-r;
#X obj 1293 1327 s comb_filt_mix-r;
#X msg 1295 1360 0;
#X obj 1293 1389 s octave_doubler;
#X msg 1293 1536 0;
#X obj 1291 1445 s lop_filt_factor-r;
#X obj 1291 1503 s lop_filt_mix-r;
#X obj 1291 1565 s lop_pluck-r;
#X msg 1293 1416 20;
#X text 1096 499 Handle messages from DAW.;
#X msg 228 1184 50;
#X text 184 291 %;
#X msg 228 1240 100;
#X text 443 296 %;
#X msg 415 1416 100;
#X text 729 135 %;
#X text 762 228 %;
#X text 762 362 %;
#X msg 648 1240 100;
#X msg 1295 1240 50;
#X msg 1295 1298 100;
#X msg 1293 1474 100;
#X text 1072 363 %;
#X text 1072 390 %;
#X text 1272 390 %;
#X obj 240 1009 r gui_reset_parameters;
#X obj 306 19 bng 21 250 50 0 gui_load_main_sample empty empty 0 -11 0 12 #fcfcfc #000000 #000000;
#X obj 454 19 bng 21 250 50 0 gui_pitch_detection empty empty 0 -11 0 12 #fcfcfc #000000 #000000;
#X text 24 18 Reset Parameters;
#X text 181 18 Load Main Sample;
#X text 347 18 Pitch Detection;
#X obj 990 53 vradio 20 1 0 3 sub_source sub_source-r sub_source -85 10 0 16 #e4e4e4 #4c4c4c #343434 0;
#X text 1015 97 Side Chain;
#X text 1014 74 Main Chain;
#X text 1015 52 WAV File;
#X floatatom 990 126 8 0 100 0 sub_start_position sub_start_position-r sub_start_position 0;
#X floatatom 990 159 8 0 100 0 sub_end_position sub_end_position-r sub_end_position 0;
#X text 1053 127 %;
#X text 1053 159 %;
#X floatatom 990 191 8 25 400 0 sub_time_stretch sub_time_stretch-r sub_time_stretch 0;
#X text 1053 192 %;
#X floatatom 990 223 8 25 400 0 sub_time_curve sub_time_curve-r sub_time_curve 0;
#X obj 1015 248 tgl 25 0 sub_loop sub_loop-r sub_loop -69 10 0 16 #e4e4e4 #4c4c4c #343434 0 1;
#X text 1053 224 %;
#X obj 1015 281 tgl 25 0 sub_auto_stretch sub_auto_stretch-r sub_auto_stretch -119 10 0 16 #e4e4e4 #4c4c4c #343434 0 1;
#X obj 1236 61 tgl 25 0 mod_volume mod_volume-r mod_volume -95 10 0 16 #e4e4e4 #4c4c4c #343434 0 1;
#X obj 1236 173 tgl 25 0 mod_pitch mod_pitch-r mod_pitch -95 10 0 16 #e4e4e4 #4c4c4c #343434 0 1;
#X obj 1236 258 tgl 25 0 mod_tone mod_tone-r mod_tone -95 10 0 16 #e4e4e4 #4c4c4c #343434 0 1;
#X obj 1053 13 bng 21 250 50 0 gui_load_sub_sample empty empty 0 -11 0 12 #fcfcfc #000000 #000000;
#X text 928 12 Load Sub Sample;
#N canvas 0 0 450 250 (subpatch) 0;
#X array sub_sample 165292 float 0;
#X coords 0 1 165291 -1 200 140 1;
#X restore 276 665 graph;
#X obj 144 430 tgl 25 0 cc_input_enabled cc_input_enabled-r cc_input_enabled -120 10 0 16 #e4e4e4 #4c4c4c #343434 0 1;
#X msg 228 1591 0;
#X obj 228 1620 s cc_input_enabled-r;
#X obj 1167 112 hsl 144 22 -100 100 0 0 mod_volume_factor mod_volume_factor-r mod_volume_factor 5 30 0 16 #e4e4e4 #4c4c4c #343434 0 0;
#X text 1285 89 Multiply;
#X text 1131 89 Replace;
#X floatatom 1236 208 9 0 100 0 mod_pitch_factor mod_pitch_factor-r mod_pitch_factor 0;
#X text 1303 209 %;
#X obj 1100 532 playhead;
#X obj 30 1397 s sub_source-r;
#X msg 30 1368 0;
#X msg 1472 1178 0;
#X msg 1474 1292 100;
#X msg 1474 1234 100;
#X msg 1478 1406 0;
#X msg 1480 1348 100;
#X obj 1439 1135 bng 25 250 50 0 empty empty empty 17 7 0 10 #e4e4e4 #4c4c4c #343434;
#X obj 1475 1207 s sub_start_position-r;
#X obj 1472 1263 s sub_time_stretch-r;
#X obj 1474 1321 s sub_end_position-r;
#X obj 1480 1377 s sub_time_curve-r;
#X obj 1478 1435 s sub_loop-r;
#X obj 1480 1492 s sub_auto_stretch-r;
#X obj 1700 1210 s mod_volume-r;
#X msg 1701 1178 0;
#X obj 1700 1272 s mod_volume_factor-r;
#X msg 1701 1305 0;
#X obj 1700 1337 s mod_pitch-r;
#X obj 1701 1399 s mod_pitch_factor-r;
#X msg 1701 1368 100;
#X msg 1701 1432 0;
#X obj 1700 1464 s mod_tone-r;
#X obj 1704 1525 s mod_vocoder_channels-r;
#X obj 1636 1135 bng 25 250 50 0 empty empty empty 17 7 0 10 #e4e4e4 #4c4c4c #343434;
#X msg 1702 1241 100;
#X obj 1236 294 hradio 20 1 0 3 mod_vocoder_channels mod_vocoder_channels-r mod_vocoder_channels -125 10 0 12 #e4e4e4 #4d4d4d #373737 0;
#X msg 1701 1495 0;
#X msg 26 1298 0;
#X msg 1480 1463 0;
#X obj 407 1327 s main_base_pitch-r;
#X msg 409 1298 60;
#X connect 40 0 41 0;
#X connect 40 0 156 0;
#X connect 40 0 157 0;
#X connect 40 0 158 0;
#X connect 40 0 159 0;
#X connect 40 0 160 0;
#X connect 40 0 161 0;
#X connect 40 0 229 0;
#X connect 40 0 246 0;
#X connect 41 0 42 0;
#X connect 41 0 44 0;
#X connect 41 0 250 0;
#X connect 41 0 223 0;
#X connect 42 0 43 0;
#X connect 44 0 45 0;
#X connect 49 0 50 0;
#X connect 52 0 51 0;
#X connect 53 0 54 0;
#X connect 56 0 55 0;
#X connect 61 0 48 0;
#X connect 62 0 58 0;
#X connect 64 0 65 0;
#X connect 68 0 59 0;
#X connect 72 0 73 0;
#X connect 77 0 75 0;
#X connect 82 0 83 0;
#X connect 84 0 71 0;
#X connect 85 0 86 0;
#X connect 92 0 91 0;
#X connect 93 0 94 0;
#X connect 97 0 98 0;
#X connect 102 0 101 0;
#X connect 106 0 107 0;
#X connect 111 0 110 0;
#X connect 112 0 113 0;
#X connect 114 0 112 0;
#X connect 114 1 112 0;
#X connect 116 0 117 0;
#X connect 121 0 124 0;
#X connect 122 0 123 0;
#X connect 129 0 130 0;
#X connect 132 0 136 0;
#X connect 133 0 134 0;
#X connect 134 0 135 0;
#X connect 135 0 140 0;
#X connect 137 0 144 0;
#X connect 140 0 138 0;
#X connect 140 0 139 0;
#X connect 141 0 142 0;
#X connect 142 0 143 0;
#X connect 143 0 140 0;
#X connect 143 1 140 1;
#X connect 144 0 135 0;
#X connect 144 1 145 0;
#X connect 145 0 135 1;
#X connect 154 0 155 0;
#X connect 156 0 172 0;
#X connect 156 0 174 0;
#X connect 156 0 61 0;
#X connect 156 0 49 0;
#X connect 156 0 111 0;
#X connect 156 0 116 0;
#X connect 156 0 214 0;
#X connect 157 0 52 0;
#X connect 157 0 56 0;
#X connect 157 0 253 0;
#X connect 157 0 53 0;
#X connect 157 0 176 0;
#X connect 157 0 64 0;
#X connect 157 0 129 0;
#X connect 157 0 132 0;
#X connect 158 0 62 0;
#X connect 158 0 180 0;
#X connect 158 0 84 0;
#X connect 158 0 68 0;
#X connect 158 0 77 0;
#X connect 159 0 82 0;
#X connect 159 0 85 0;
#X connect 159 0 102 0;
#X connect 159 0 92 0;
#X connect 159 0 93 0;
#X connect 159 0 97 0;
#X connect 159 0 106 0;
#X connect 160 0 122 0;
#X connect 160 0 121 0;
#X connect 161 0 154 0;
#X connect 161 0 181 0;
#X connect 161 0 182 0;
#X connect 161 0 164 0;
#X connect 161 0 170 0;
#X connect 161 0 183 0;
#X connect 161 0 166 0;
#X connect 164 0 165 0;
#X connect 166 0 169 0;
#X connect 170 0 167 0;
#X connect 172 0 46 0;
#X connect 174 0 47 0;
#X connect 176 0 57 0;
#X connect 180 0 60 0;
#X connect 181 0 162 0;
#X connect 182 0 163 0;
#X connect 183 0 168 0;
#X connect 187 0 41 0;
#X connect 187 0 156 0;
#X connect 187 0 157 0;
#X connect 187 0 158 0;
#X connect 187 0 159 0;
#X connect 187 0 160 0;
#X connect 187 0 161 0;
#X connect 187 0 229 0;
#X connect 187 0 246 0;
#X connect 214 0 215 0;
#X connect 221 0 114 0;
#X connect 221 5 133 0;
#X connect 223 0 222 0;
#X connect 224 0 230 0;
#X connect 225 0 232 0;
#X connect 226 0 231 0;
#X connect 227 0 234 0;
#X connect 228 0 233 0;
#X connect 229 0 224 0;
#X connect 229 0 226 0;
#X connect 229 0 225 0;
#X connect 229 0 228 0;
#X connect 229 0 227 0;
#X connect 229 0 251 0;
#X connect 237 0 236 0;
#X connect 239 0 240 0;
#X connect 242 0 241 0;
#X connect 243 0 244 0;
#X connect 246 0 237 0;
#X connect 246 0 247 0;
#X connect 246 0 239 0;
#X connect 246 0 242 0;
#X connect 246 0 243 0;
#X connect 246 0 249 0;
#X connect 247 0 238 0;
#X connect 249 0 245 0;
#X connect 250 0 69 0;
#X connect 251 0 235 0;
#X connect 253 0 252 0;
#X coords 0 -1 1 1 1350 460 1 5 5;
