#N canvas 943 274 368 553 10;
#X obj 23 460 list tosymbol;
#X obj 86 234 list fromsymbol;
#X obj 86 149 list split 1;
#X obj 86 99 until;
#X obj 86 124 list append;
#X obj 180 149 bang;
#X obj 86 399 list prepend;
#X obj 200 399 t a;
#X obj 23 430 list append;
#X obj 86 375 list append 32;
#X obj 23 49 t b b a b;
#X obj 155 201 makefilename %s;
#X obj 86 171 route symbol;
#X obj 23 21 inlet;
#X obj 23 487 outlet;
#X obj 167 341 list fromsymbol;
#X obj 167 291 list append \$1;
#X obj 167 266 loadbang;
#X obj 167 314 route symbol;
#X obj 233 48 symbol;
#X obj 233 22 inlet;
#X text 150 466 by cuinjune.... \; repaired by whale-av;
#X connect 0 0 14 0;
#X connect 1 0 9 0;
#X connect 2 0 12 0;
#X connect 2 1 4 1;
#X connect 2 2 5 0;
#X connect 3 0 4 0;
#X connect 4 0 2 0;
#X connect 5 0 3 1;
#X connect 6 0 7 0;
#X connect 6 0 8 1;
#X connect 7 0 6 1;
#X connect 8 0 0 0;
#X connect 9 0 6 0;
#X connect 10 0 8 0;
#X connect 10 1 3 0;
#X connect 10 2 4 1;
#X connect 10 3 6 1;
#X connect 11 0 1 0;
#X connect 12 0 1 0;
#X connect 12 1 11 0;
#X connect 13 0 10 0;
#X connect 15 0 9 1;
#X connect 16 0 18 0;
#X connect 17 0 16 0;
#X connect 18 0 15 0;
#X connect 19 0 15 0;
#X connect 20 0 19 0;
