#N canvas 827 239 527 327 12;
#X obj 26 28 inlet val1;
#X obj 117 28 inlet val2;
#X obj 210 28 inlet mix_factor;
#X obj 210 70 clip 0 1;
#X obj 210 112 - 1;
#X obj 210 149 * -1;
#X obj 117 276 *;
#X obj 26 276 *;
#X obj 26 352 +;
#X obj 26 404 outlet;
#X obj 210 206 t b f;
#X obj 64 206 t b f;
#X obj 117 310 t b f;
#X connect 0 0 7 0;
#X connect 1 0 6 0;
#X connect 2 0 3 0;
#X connect 3 0 4 0;
#X connect 3 0 11 0;
#X connect 4 0 5 0;
#X connect 5 0 10 0;
#X connect 6 0 12 0;
#X connect 7 0 8 0;
#X connect 8 0 9 0;
#X connect 10 0 6 0;
#X connect 10 1 6 1;
#X connect 11 0 7 0;
#X connect 11 1 7 1;
#X connect 12 0 8 0;
#X connect 12 1 8 1;
