#N canvas 827 239 527 327 12;
#X obj 245 128 -~ 1;
#X obj 245 165 *~ -1;
#X obj 245 86 clip~ 0 1;
#X obj 61 187 *~;
#X obj 152 187 *~;
#X obj 61 44 inlet~ sig1;
#X obj 152 44 inlet~ sig2;
#X obj 245 44 inlet~ mix_factor;
#X obj 61 263 +~;
#X obj 61 315 outlet~;
#X connect 0 0 1 0;
#X connect 1 0 4 1;
#X connect 2 0 0 0;
#X connect 2 0 3 1;
#X connect 3 0 8 0;
#X connect 4 0 8 1;
#X connect 5 0 3 0;
#X connect 6 0 4 0;
#X connect 7 0 2 0;
#X connect 8 0 9 0;
