#N canvas 691 1167 924 740 10;
#X msg 3 87 set \$1;
#X msg 131 59 set \$1;
#X obj 3 16 r sld-\$2;
#X obj 3 37 s \$2-r;
#X obj 3 66 r \$2;
#X obj 3 108 s sld-\$2-r;
#X obj 131 16 param.set \$1 \$2;
#X obj 131 37 param.get \$1 \$2-r;
#X obj 131 101 s sld-\$2-r;
#X connect 0 0 5 0;
#X connect 1 0 8 0;
#X connect 2 0 3 0;
#X connect 4 0 0 0;
#X connect 7 0 1 0;
