#N canvas 827 239 527 327 12;
#X obj 17 20 inlet;
#X obj 17 49 t b b;
#X obj 106 93 s \$0-translate;
#X obj 383 20 r \$0-translate;
#X obj 17 118 s camomile;
#X msg 17 93 gui redraw;
#X obj 1480 1057 show_hint;
#X obj 1480 20 r \$0-translate;
#X msg 1480 94 \; label_synth_level label 音量;
#X obj 686 20 r \$0-translate;
#X msg 686 95 \; label_sawtooth label 简单锯齿波;
#X msg 686 136 \; label_wav_file label WAV文件;
#X msg 686 180 \; label_main_chain label 主链音频;
#X msg 686 224 \; label_side_chain label 侧链音频;
#X obj 686 354 show_hint;
#X obj 686 448 show_hint;
#X msg 686 419 请在下方的面板中读取文件并设置相关参数。;
#X obj 686 543 show_hint;
#X msg 686 514 使用当前轨道的音频输入进行采样，仅在效果器模式中可用。;
#X obj 686 638 show_hint;
#X msg 686 609 使用另一轨道的音频输入进行采样（需手动设置），仅在效果器模式中可用。;
#X obj 1142 20 r \$0-translate;
#X msg 1142 268 \; label_loop label ▷\ 循环;
#X msg 1142 310 \; label_time_stretch label ▷\ 时间伸缩;
#X msg 1142 395 \; label_stretch_mode label ▷\ 伸缩模式;
#X msg 1142 569 \; label_delay label └\ 延时;
#X msg 1142 482 \; label_classic label 经典;
#X msg 1142 528 \; label_adaptive label 自适应;
#X msg 383 94 \; label_global_volume label -\ 总音量;
#X msg 383 137 \; label_global_pan label -\ 声像;
#X msg 383 178 \; label_enable_cc label -\ 启用CC输入;
#X msg 383 221 \; label_language label -\ 语言;
#X msg 383 51 \; label_global_setting label 全局设置;
#X obj 1142 776 show_hint;
#X obj 1142 881 show_hint;
#X msg 1142 139 \; label_auto_detect label └\ 自动检测;
#X msg 1142 849 自动音高检测的结果无法保证一定正确，必要时请手动调整。, f 43;
#X obj 1142 982 show_hint;
#X msg 1142 354 \; label_speed_curve label ▷\ 速度曲线;
#X msg 1142 950 变速播放样本，比如快放开头、慢放结尾，或者反之。;
#X obj 1142 1081 show_hint;
#X msg 1142 440 \; label_constant label 恒定;
#X msg 1142 1049 该模式下，样本长度不随音高改变。;
#X obj 1142 1176 show_hint;
#X msg 1142 1144 样本长度与音高成反比，可减少拉伸造成的失真。;
#X obj 1142 1280 show_hint;
#X msg 1142 1248 将样本调整为与MIDI音符等长，该模式需要将发声延迟数个拍子，以便插件得到音符长度。, f 40;
#X msg 1480 139 \; label_granular_grain label *\ 颗粒尺度, f 38;
#X msg 1480 186 \; label_denoise label *\ 频域降噪, f 38;
#X msg 1480 231 \; label_phase_bash label *\ 相位重置, f 38;
#X msg 1480 278 \; label_granular_formant_shift label *\ 共振峰偏移, f 47;
#X msg 1480 325 \; label_granular_formant_preserve label *\ 共振峰保持, f 47;
#X msg 1480 419 \; label_wavetable_grain label ~\ 颗粒尺度, f 38;
#X msg 1480 467 \; label_wavetable_formant_shift label ~\ 共振峰偏移, f 47;
#X msg 1480 514 \; label_wavetable_formant_preserve label ~\ 共振峰保持;
#X msg 1480 562 \; label_untuned label 无调音;
#X obj 1786 20 r \$0-translate;
#X msg 686 51 \; label_main_sample_source label 主采样输入;
#X msg 1786 51 \; label_mod_sample_source label 调制采样输入;
#X msg 1142 51 \; label_main_sample_file label 主采样文件;
#X msg 1142 95 \; label_base_pitch label ▷\ 原始音高;
#X obj 2105 20 r \$0-translate;
#X msg 2105 95 \; label_volume label 音量, f 29;
#X msg 2105 186 \; label_tone label 音色;
#X obj 2425 20 r \$0-translate;
#X msg 2425 139 \; label_lowpass label 低通;
#X msg 2425 231 \; label_power label -\ 强度;
#X msg 2425 278 \; label_freq label -\ 频率;
#X msg 2425 372 \; label_pluck label -\ 弹拨;
#X obj 2746 20 r \$0-translate;
#X msg 2746 274 \; label_portamento label -\ 滑音;
#X msg 2746 321 \; label_legato label -\ 连音;
#X msg 2746 51 \; label_envelope label 音量包络;
#X obj 17 413 show_hint;
#X msg 17 384 鼠标拖拽→更改数值；Shift+拖拽→微调；双击→输入数值。;
#X obj 210 293 r gui_language;
#X obj 17 346 spigot;
#X obj 210 328 == 1;
#X msg 686 325 使用简单波形而非采样来发声，可用作音高参考或是调制信号的载波。;
#X msg 1142 744 音高以MIDI编号表示，如60即对应中音C。正确设置此值是使用一部分功能的前提。, f 43;
#X msg 1480 1028 波表合成器中，较大的颗粒尺度通常会使声音产生更重的机械感。;
#X obj 686 744 show_hint;
#X msg 686 712 用来发声的输入信号，变调算法均作用于该信号。, f 43;
#X obj 383 354 show_hint;
#X msg 383 325 支持常规的音量、声像与滑音控制。另外，可用Mod控制时间伸缩、Expression控制共振峰。, f 37;
#X obj 1480 773 show_hint;
#X msg 1480 51 \; label_granular_synth label 颗粒合成器;
#X msg 1480 372 \; label_wavetable_synth label 波表合成器;
#X obj 1480 874 show_hint;
#X msg 1480 845 此合成器可以产生平稳的音调，且有更灵活的共振峰调节功能，但会加重声音的机械感。, f 51;
#X obj 1480 964 show_hint;
#X msg 1480 935 该值通常没有重大影响，如果声音拉伸时失真或杂音严重，可考虑加大此值。, f 51;
#X obj 1480 1148 show_hint;
#X msg 1480 1119 筛除可能为杂音的频率成分，请注意此值设置过大时有可能将正常的声音成分也削除。, f 51;
#X msg 1480 744 一种传统的变调变速算法，只有设置原始音高后才能正确变调。, f 52;
#X obj 1480 1242 show_hint;
#X obj 1480 1331 show_hint;
#X msg 1480 1302 常用于人声，在不改变音调的情况下使声音变得尖利或低沉。, f 51;
#X obj 1480 1425 show_hint;
#X obj 1480 1520 show_hint;
#X msg 1480 1491 常用于人声，使音色不随变调而扭曲。相比颗粒合成器有更大的音域。, f 51;
#X msg 1786 94 \; label_mod_sample_file label 调制采样文件, f 39;
#X obj 1786 604 show_hint;
#X msg 1786 575 第二个输入音频，它不直接用于发声，而是用来提取音频的特征以调制主采样。, f 39;
#X obj 1786 701 show_hint;
#X msg 1786 136 \; label_fit_main label ▷\ 跟随主采样;
#X msg 1786 672 以主采样文件的长度作为时间伸缩的基础单位。, f 39;
#X msg 1480 1213 此功能可将输入音频的音调拉平，同时开启共振峰调节功能。但它可能会增加失真与延迟。, f 51;
#X msg 2105 51 \; label_mod_options label 调制选项, f 29;
#X msg 2105 139 \; label_pitch label 音调;
#X obj 2105 604 show_hint;
#X msg 2105 575 此面板可以提取调制采样的特定音频特征，并将它们融合进主采样中。, f 40;
#X obj 2105 701 show_hint;
#X msg 2105 231 \; label_factor label -\ 力度;
#X msg 2105 278 \; label_replace label 替换\ ┘;
#X msg 2105 672 在左侧（负值）模式中，主采样的音量包络会被调制采样的包络取代。, f 40;
#X obj 2105 796 show_hint;
#X msg 2105 325 \; label_multiply label └\ 相乘;
#X msg 2105 767 在右侧（正值）模式中，调制采样的音量包络会被叠加到主采样的的音量包络上。, f 40;
#X obj 2425 604 show_hint;
#X msg 2425 51 \; label_filters label 滤波器;
#X msg 2425 95 \; label_comb label 梳状;
#X msg 2425 575 梳状滤波器放大音频的谐波成分而过滤其它频率成分，可用于加强调音效果。, f 40;
#X obj 2425 701 show_hint;
#X msg 2425 672 简单的一阶低通滤波器，用来过滤高频成分。, f 40;
#X obj 2425 795 show_hint;
#X msg 2425 186 \; label_mix label -\ 混音;
#X msg 2425 766 滤波后信号与原始信号的混合比例。, f 40;
#X obj 2425 895 show_hint;
#X msg 2425 325 \; label_octave_doubler label -\ 双倍频率;
#X obj 2425 996 show_hint;
#X msg 2425 967 利用滤波器将声音提高一个八度，合成器变调效果不佳时可考虑用此选项扩大音域。, f 40;
#X obj 2425 1095 show_hint;
#X msg 2425 1066 低通滤波器的截止频率，以基频的倍数来表示。, f 40;
#X obj 2425 1193 show_hint;
#X msg 2425 1164 使高频成分相比低频更快衰减，可模拟类似弹拨乐器的音色。, f 40;
#X obj 2746 604 show_hint;
#X msg 2746 94 \; label_attack label ^\ 起音(A);
#X msg 2746 138 \; label_decay label ^\ 衰减(D);
#X msg 2746 182 \; label_sustain label ^\ 保持(S);
#X msg 2746 229 \; label_release label ^\ 释音(R);
#X msg 2746 575 以标准的ADSR参数表示的音量包络。, f 40;
#X obj 2746 701 show_hint;
#X msg 2746 672 将音高从上一个音符逐渐过渡到新音符。, f 40;
#X obj 2746 805 show_hint;
#X msg 2746 776 由复音发声切换为单音发声，时间上有重叠的多个音符将被视作同一次采样。, f 40;
#X obj 2105 901 show_hint;
#X msg 2105 372 \; label_vocoder_channels label -\ 声码器通道数;
#X msg 2105 872 使用通道声码器提取采样的音色。通道数量多时可以更精确地提取音色，但也消耗更多CPU资源。, f 40;
#X msg 1480 1396 常用于人声，使音色不随变调而扭曲。此合成器中共振峰可保持的音域较小（如1~2个八度）。, f 51;
#X obj 1142 1388 show_hint;
#X msg 1142 1356 将音频样本整体拉长或者缩短。;
#X obj 1142 1489 show_hint;
#X msg 1142 180 \; label_start_position label ▷\ 起始位置;
#X msg 1142 224 \; label_end_position label ▷\ 终止位置;
#X msg 2425 866 梳状滤波器的共振强度。请注意此值较大时可能会导致音量剧烈增加，需要相应调节音量以免爆音。, f 40;
#X obj 383 293 r mouseenter_-\ 启用CC输入;
#X obj 686 293 r mouseenter_简单锯齿波;
#X obj 686 387 r mouseenter_WAV文件;
#X obj 686 482 r mouseenter_主链音频;
#X obj 686 577 r mouseenter_侧链音频;
#X obj 686 680 r mouseenter_主采样输入;
#X obj 1142 712 r mouseenter_▷\ 原始音高;
#X obj 1142 817 r mouseenter_└\ 自动检测;
#X obj 1142 918 r mouseenter_▷\ 速度曲线;
#X obj 1142 1017 r mouseenter_恒定;
#X obj 1142 1112 r mouseenter_经典;
#X obj 1142 1216 r mouseenter_自适应;
#X obj 1142 1324 r mouseenter_▷\ 时间伸缩;
#X obj 1142 1425 r mouseenter_▷\ 起始位置;
#X obj 1277 1425 r mouseenter_▷\ 终止位置;
#X msg 1142 1457 可以仅截取文件的一部分用于采样，也可用于实现倒放。;
#X obj 1480 712 r mouseenter_颗粒合成器;
#X obj 1480 813 r mouseenter_波表合成器;
#X obj 1480 906 r mouseenter_*\ 颗粒尺度;
#X obj 1480 999 r mouseenter_~\ 颗粒尺度;
#X obj 1480 1090 r mouseenter_*\ 频域降噪;
#X obj 1480 1184 r mouseenter_*\ 相位重置;
#X obj 1480 1273 r mouseenter_*\ 共振峰偏移;
#X obj 1666 1273 r mouseenter_~\ 共振峰偏移;
#X obj 1480 1367 r mouseenter_*\ 共振峰保持;
#X obj 1480 1462 r mouseenter_~\ 共振峰保持;
#X obj 1786 543 r mouseenter_调制采样输入;
#X obj 1786 640 r mouseenter_▷\ 跟随主采样;
#X obj 2105 543 r mouseenter_调制选项;
#X obj 2105 640 r mouseenter_替换\ ┘;
#X obj 2105 735 r mouseenter_└\ 相乘;
#X obj 2105 840 r mouseenter_-\ 声码器通道数;
#X obj 2425 543 r mouseenter_梳状;
#X obj 2425 640 r mouseenter_低通;
#X obj 2425 734 r mouseenter_-\ 混音;
#X obj 2425 834 r mouseenter_-\ 强度;
#X obj 2425 935 r mouseenter_-\ 双倍频率;
#X obj 2425 1034 r mouseenter_-\ 频率;
#X obj 2425 1132 r mouseenter_-\ 弹拨;
#X obj 2746 512 r mouseenter_^\ 起音(A);
#X obj 2910 512 r mouseenter_^\ 衰减(D);
#X obj 2746 543 r mouseenter_^\ 保持(S);
#X obj 2910 543 r mouseenter_^\ 释音(R);
#X obj 2746 640 r mouseenter_-\ 滑音;
#X obj 2746 744 r mouseenter_-\ 连音;
#X obj 17 292 r mouseenter_atom_number;
#X connect 0 0 1 0;
#X connect 1 0 5 0;
#X connect 1 1 2 0;
#X connect 3 0 28 0;
#X connect 3 0 32 0;
#X connect 3 0 29 0;
#X connect 3 0 30 0;
#X connect 3 0 31 0;
#X connect 5 0 4 0;
#X connect 7 0 8 0;
#X connect 7 0 52 0;
#X connect 7 0 86 0;
#X connect 7 0 47 0;
#X connect 7 0 48 0;
#X connect 7 0 49 0;
#X connect 7 0 50 0;
#X connect 7 0 51 0;
#X connect 7 0 87 0;
#X connect 7 0 53 0;
#X connect 7 0 54 0;
#X connect 7 0 55 0;
#X connect 9 0 57 0;
#X connect 9 0 10 0;
#X connect 9 0 11 0;
#X connect 9 0 12 0;
#X connect 9 0 13 0;
#X connect 16 0 15 0;
#X connect 18 0 17 0;
#X connect 20 0 19 0;
#X connect 21 0 60 0;
#X connect 21 0 35 0;
#X connect 21 0 153 0;
#X connect 21 0 154 0;
#X connect 21 0 22 0;
#X connect 21 0 59 0;
#X connect 21 0 23 0;
#X connect 21 0 38 0;
#X connect 21 0 24 0;
#X connect 21 0 41 0;
#X connect 21 0 26 0;
#X connect 21 0 27 0;
#X connect 21 0 25 0;
#X connect 36 0 34 0;
#X connect 39 0 37 0;
#X connect 42 0 40 0;
#X connect 44 0 43 0;
#X connect 46 0 45 0;
#X connect 56 0 101 0;
#X connect 56 0 58 0;
#X connect 56 0 105 0;
#X connect 61 0 108 0;
#X connect 61 0 62 0;
#X connect 61 0 109 0;
#X connect 61 0 63 0;
#X connect 61 0 113 0;
#X connect 61 0 114 0;
#X connect 61 0 117 0;
#X connect 61 0 147 0;
#X connect 64 0 120 0;
#X connect 64 0 121 0;
#X connect 64 0 65 0;
#X connect 64 0 126 0;
#X connect 64 0 66 0;
#X connect 64 0 67 0;
#X connect 64 0 129 0;
#X connect 64 0 68 0;
#X connect 69 0 137 0;
#X connect 69 0 138 0;
#X connect 69 0 139 0;
#X connect 69 0 140 0;
#X connect 69 0 70 0;
#X connect 69 0 71 0;
#X connect 69 0 72 0;
#X connect 74 0 73 0;
#X connect 75 0 77 0;
#X connect 76 0 74 0;
#X connect 77 0 76 1;
#X connect 78 0 14 0;
#X connect 79 0 33 0;
#X connect 80 0 6 0;
#X connect 82 0 81 0;
#X connect 84 0 83 0;
#X connect 89 0 88 0;
#X connect 91 0 90 0;
#X connect 93 0 92 0;
#X connect 94 0 85 0;
#X connect 97 0 96 0;
#X connect 100 0 99 0;
#X connect 103 0 102 0;
#X connect 106 0 104 0;
#X connect 107 0 95 0;
#X connect 111 0 110 0;
#X connect 115 0 112 0;
#X connect 118 0 116 0;
#X connect 122 0 119 0;
#X connect 124 0 123 0;
#X connect 127 0 125 0;
#X connect 131 0 130 0;
#X connect 133 0 132 0;
#X connect 135 0 134 0;
#X connect 141 0 136 0;
#X connect 143 0 142 0;
#X connect 145 0 144 0;
#X connect 148 0 146 0;
#X connect 149 0 98 0;
#X connect 151 0 150 0;
#X connect 155 0 128 0;
#X connect 156 0 84 0;
#X connect 157 0 78 0;
#X connect 158 0 16 0;
#X connect 159 0 18 0;
#X connect 160 0 20 0;
#X connect 161 0 82 0;
#X connect 162 0 79 0;
#X connect 163 0 36 0;
#X connect 164 0 39 0;
#X connect 165 0 42 0;
#X connect 166 0 44 0;
#X connect 167 0 46 0;
#X connect 168 0 151 0;
#X connect 169 0 171 0;
#X connect 170 0 171 0;
#X connect 171 0 152 0;
#X connect 172 0 94 0;
#X connect 173 0 89 0;
#X connect 174 0 91 0;
#X connect 175 0 80 0;
#X connect 176 0 93 0;
#X connect 177 0 107 0;
#X connect 178 0 97 0;
#X connect 179 0 97 0;
#X connect 180 0 149 0;
#X connect 181 0 100 0;
#X connect 182 0 103 0;
#X connect 183 0 106 0;
#X connect 184 0 111 0;
#X connect 185 0 115 0;
#X connect 186 0 118 0;
#X connect 187 0 148 0;
#X connect 188 0 122 0;
#X connect 189 0 124 0;
#X connect 190 0 127 0;
#X connect 191 0 155 0;
#X connect 192 0 131 0;
#X connect 193 0 133 0;
#X connect 194 0 135 0;
#X connect 195 0 141 0;
#X connect 196 0 141 0;
#X connect 197 0 141 0;
#X connect 198 0 141 0;
#X connect 199 0 143 0;
#X connect 200 0 145 0;
#X connect 201 0 76 0;
