#N canvas 827 239 527 327 12;
#X obj 17 20 inlet;
#X obj 17 49 t b b;
#X obj 106 93 s \$0-translate;
#X obj 17 118 s camomile;
#X msg 17 93 gui redraw;
#X msg 1546 998 A\ larger\ grain\ size\ in\ the\ wavetable\ synth\ may\ make\ the\ voice\ more\ robotic., f 50;
#X obj 1546 1057 show_hint;
#X obj 671 20 r \$0-translate;
#X msg 671 93 \; label_sawtooth label Sawtooth;
#X msg 671 136 \; label_wav_file label WAV\ File;
#X msg 671 178 \; label_main_chain label Main\ Chain;
#X msg 671 220 \; label_side_chain label Side\ Chain;
#X obj 671 384 show_hint;
#X msg 671 336 A\ simple\ sawtooth\ wave\ as\ either\ a\ reference\ or\ a\ carrier\ for\ modulations.;
#X obj 671 495 show_hint;
#X msg 671 447 A\ .wav\ audio\ file\ can\ be\ loaded\ and\ configured\ in\ the\ panel\ below.;
#X obj 671 608 show_hint;
#X obj 671 725 show_hint;
#X obj 1150 20 r \$0-translate;
#X msg 1150 51 \; label_main_sample_file label Main\ Sample\ File;
#X msg 1150 224 \; label_end_position label ▷\ End\ Position;
#X msg 1150 268 \; label_loop label ▷\ Loop;
#X msg 1150 395 \; label_stretch_mode label ▷\ Stretch\ Mode;
#X msg 1150 569 \; label_delay label └\ Delay;
#X msg 1150 482 \; label_classic label Classic;
#X msg 1150 528 \; label_adaptive label Adaptive;
#X msg 1150 440 \; label_constant label Constant;
#X obj 369 20 r \$0-translate;
#X msg 369 51 \; label_global_setting label Global\ Setting;
#X msg 369 94 \; label_global_volume label -\ Volume;
#X msg 369 221 \; label_language label -\ Language;
#X obj 1546 20 r \$0-translate;
#X obj 1852 20 r \$0-translate;
#X msg 1546 94 \; label_synth_level label Level;
#X msg 1546 139 \; label_granular_grain label *\ Grain\ Size, f 38;
#X msg 1546 231 \; label_phase_bash label *\ Phase\ Bash, f 38;
#X msg 1546 278 \; label_granular_formant_shift label *\ Formant\ Shift, f 47;
#X msg 1546 325 \; label_granular_formant_preserve label *\ Formant\ Preserve, f 53;
#X msg 1546 372 \; label_wavetable_synth label Wavetable\ Synth;
#X msg 1546 419 \; label_wavetable_grain label ~\ Grain\ Size, f 38;
#X msg 1546 467 \; label_wavetable_formant_shift label ~\ Formant\ Shift, f 47;
#X msg 1546 514 \; label_wavetable_formant_preserve label ~\ Formant\ Preserve;
#X msg 1546 562 \; label_untuned label Untuned\ Audio;
#X msg 1852 51 \; label_mod_sample_source label Mod\ Sample\ Source;
#X msg 1852 94 \; label_mod_sample_file label Mod\ Sample\ File;
#X obj 2236 20 r \$0-translate;
#X obj 2556 20 r \$0-translate;
#X obj 2877 20 r \$0-translate;
#X msg 2236 51 \; label_mod_options label Modulation\ Options;
#X msg 2236 95 \; label_volume label Volume;
#X msg 2236 139 \; label_pitch label Pitch;
#X msg 2236 186 \; label_tone label Tone;
#X msg 2236 231 \; label_factor label -\ Factor;
#X msg 2556 95 \; label_comb label Comb;
#X msg 2556 139 \; label_lowpass label Lowpass;
#X msg 2556 186 \; label_mix label -\ Mix;
#X msg 2556 231 \; label_power label -\ Power;
#X msg 2556 278 \; label_freq label -\ Freq;
#X msg 2556 325 \; label_octave_doubler label -\ Octave\ Doubler;
#X msg 2556 372 \; label_pluck label -\ Pluck;
#X msg 2877 138 \; label_decay label ^\ Decay;
#X msg 2877 182 \; label_sustain label ^\ Sustain;
#X msg 2877 229 \; label_release label ^\ Release;
#X msg 2877 274 \; label_portamento label -\ Portamento;
#X msg 2877 321 \; label_legato label -\ Legato;
#X msg 1546 51 \; label_granular_synth label Granular\ Synth;
#X obj 17 424 show_hint;
#X obj 203 250 r gui_language;
#X obj 17 304 spigot;
#X obj 203 285 == 0;
#X msg 17 354 Drag to change values. Shift to fine-tune. Double-click to type., f 40;
#X msg 2236 325 \; label_multiply label └\ Multiply;
#X obj 369 395 show_hint;
#X msg 369 137 \; label_global_pan label -\ Pan;
#X msg 369 178 \; label_enable_cc label -\ Enable\ CC;
#X msg 369 336 Supported CC: Volume\\\, Pan\\\, Portamento\\\, Mod→Stretch\\\, Expression→Formant., f 37;
#X obj 369 304 r mouseenter_-\ Enable\ CC;
#X obj 671 304 r mouseenter_Sawtooth;
#X obj 671 415 r mouseenter_WAV\ File;
#X obj 671 528 r mouseenter_Main\ Chain;
#X obj 671 645 r mouseenter_Side\ Chain;
#X obj 1546 966 r mouseenter_~\ Grain\ Size;
#X obj 17 250 r mouseenter_atom_number;
#X obj 671 841 show_hint;
#X msg 671 51 \; label_main_sample_source label Main\ Sample\ Source;
#X obj 671 761 r mouseenter_Main\ Sample\ Source;
#X msg 671 793 The\ input\ signal\ for\ all\ synthesizers\ to\ generate\ sounds.;
#X obj 1150 714 show_hint;
#X msg 1150 95 \; label_base_pitch label ▷\ Base\ Pitch;
#X obj 1150 638 r mouseenter_▷\ Base\ Pitch;
#X obj 1150 827 show_hint;
#X msg 1150 139 \; label_auto_detect label └\ Auto\ Detect;
#X obj 1150 751 r mouseenter_└\ Auto\ Detect;
#X msg 1150 783 Pitch\ detector\ is\ not\ guaranteed\ to\ always\ work.\ Please\ set\ the\ pitch\ manually\ if\ necessary., f 52;
#X obj 1150 946 show_hint;
#X msg 1150 180 \; label_start_position label ▷\ Start\ Position;
#X obj 1150 870 r mouseenter_▷\ Start\ Position;
#X obj 1356 870 r mouseenter_▷\ End\ Position;
#X obj 1150 1062 show_hint;
#X msg 1150 310 \; label_time_stretch label ▷\ Time\ Stretch;
#X obj 1150 983 r mouseenter_▷\ Time\ Stretch;
#X obj 1150 1171 show_hint;
#X msg 1150 354 \; label_speed_curve label ▷\ Speed\ Curve;
#X obj 1150 1092 r mouseenter_▷\ Speed\ Curve;
#X obj 1150 1281 show_hint;
#X obj 1150 1202 r mouseenter_Constant;
#X msg 1150 1234 In\\\ this\\\ mode\\\,\\\ each\\\ note\\\ is\\\ played\\\ at\\\ the\\\ same\\\ speed\\\ despite\\\ its\\\ pitch., f 51;
#X obj 1150 1389 show_hint;
#X obj 1150 1310 r mouseenter_Classic;
#X msg 1150 1342 In\\\ this\\\ mode\\\,\\\ notes\\\ with\\\ higher\\\ pitch\\\ have\\\ shorter\\\ durations., f 51;
#X obj 1150 1505 show_hint;
#X obj 1150 1426 r mouseenter_Adaptive;
#X msg 1150 670 Pitch\\\ represented\\\ by\\\ MIDI\\\ note\\\ number\\\,\\\ e.g.\\\ 60\\\ for\\\ middle-C.\\\ Required\\\ for\\\ some\\\ options., f 52;
#X obj 1546 931 show_hint;
#X obj 1546 840 r mouseenter_*\ Grain\ Size;
#X msg 1546 872 Usually\ has\ only\ subtle\ effect.\ Consider\ increase\ it\ if\ sound\ goes\ off-key\ during\ stretch., f 50;
#X obj 1546 713 show_hint;
#X obj 1546 638 r mouseenter_Granular\ Synth;
#X msg 1546 670 A\ traditional\ method\ of\ pitch\ shifting.\ Requires\ the\ base\ pitch\ set\ correctly., f 50;
#X obj 1549 814 show_hint;
#X obj 1549 739 r mouseenter_Wavetable\ Synth;
#X msg 1549 771 Uses\ the\ sample\ as\ wavetables.\ Results\ in\ a\ smoother\ but\ more\ robotic\ tune., f 50;
#X obj 1549 1184 show_hint;
#X msg 1546 186 \; label_denoise label *\ Denoise, f 38;
#X obj 1549 1093 r mouseenter_*\ Denoise;
#X msg 1150 902 Clips\ the\ sample\ by\ percentage.\ Reverse\ playback\ is\ also\ supported., f 52;
#X msg 1150 1015 Changes\ the\ playback\ rate\ of\ the\ sample\ file.\ Pitch\ is\ not\ affected., f 51;
#X msg 1150 1124 Plays\ the\ sample\ at\ a\ non-linear\ speed\ to\ create\ a\ fade-in/fade-out\ effect., f 51;
#X msg 1150 1458 Matches\ sample\ duration\ to\ note\ length.\ A\ delay\ of\ several\ beats\ is\ required., f 51;
#X msg 671 560 Uses\ the\ audio\ input\ of\ the\ current\ track.\ Available\ only\ as\ an\ FX\ plug-in.;
#X msg 671 677 Uses\ the\ audio\ input\ of\ the\ another\ track.\ Available\ only\ as\ an\ FX\ plug-in.;
#X msg 1549 1125 Removes\ frequency\ components\ that\ can\ be\ noise.\ Too\ high\ threshold\ may\ damage\ normal\ sound., f 50;
#X obj 1549 1303 show_hint;
#X obj 1549 1224 r mouseenter_*\ Phase\ Bash;
#X msg 1549 1256 Makes\\\ pitch\\\ steady\\\ and\\\ enables\\\ formant\\\ shifting\\\,\\\ however\\\ leads\\\ to\\\ higher\\\ delay\\\ and\\\ distortion., f 50;
#X obj 1549 1421 show_hint;
#X obj 1549 1342 r mouseenter_*\ Formant\ Shift;
#X obj 1769 1342 r mouseenter_~\ Formant\ Shift;
#X obj 1549 1528 show_hint;
#X obj 1549 1458 r mouseenter_*\ Formant\ Preserve;
#X msg 1549 1484 Keeps\ the\ timbre\ of\ human\ voice\ despite\ the\ pitch.\ Quality\ depends\ on\ pitch\ range., f 50;
#X obj 1549 1629 show_hint;
#X obj 1549 1559 r mouseenter_~\ Formant\ Preserve;
#X msg 1549 1585 Keeps\ the\ timbre\ of\ human\ voice\ despite\ the\ pitch.\ Better\ quality\ than\ granular\ synth., f 50;
#X msg 1549 1374 Changes\ the\ timbre\ of\ human\ voice.\ Independent\ of\ pitch\ shifting., f 50;
#X obj 2879 565 show_hint;
#X msg 2877 51 \; label_envelope label Envelope;
#X msg 2877 94 \; label_attack label ^\ Attack;
#X obj 2879 466 r mouseenter_^\ Attack;
#X obj 3066 466 r mouseenter_^\ Decay;
#X obj 2911 498 r mouseenter_^\ Sustain;
#X obj 3096 498 r mouseenter_^\ Release;
#X msg 2879 529 Parameters\ of\ a\ common\ ADSR\ envelope., f 50;
#X obj 2877 608 r mouseenter_-\ Portamento;
#X obj 2877 677 show_hint;
#X msg 2877 643 Applys\ a\ pitch\ transition\ from\ last\ note\ to\ a\ new\ one.;
#X obj 2877 770 show_hint;
#X obj 2877 711 r mouseenter_-\ Legato;
#X msg 2877 740 Generates\ a\ monotone\ from\ multiple\ overlapping\ notes.;
#X obj 1862 645 show_hint;
#X obj 1862 570 r mouseenter_Mod\ Sample\ Source;
#X msg 1862 602 The\ second\ input\ audio\ that\ does\ not\ generate\ sounds\ directly\ but\ modulates\ the\ first\ input., f 50;
#X obj 1862 773 show_hint;
#X msg 1852 136 \; label_fit_main label ▷\ Fit\ Main;
#X obj 1862 698 r mouseenter_▷\ Fit\ Main;
#X msg 1862 730 Uses\ duration\ of\ the\ main\ sample\ file\ as\ the\ base\ (100%)\ length., f 50;
#X obj 2236 581 show_hint;
#X obj 2236 506 r mouseenter_Modulation\ Options;
#X msg 2236 538 Extracts\ specific\ features\ from\ the\ mod\ sample\ to\ apply\ to\ the\ main\ sample., f 42;
#X obj 2236 692 show_hint;
#X msg 2236 278 \; label_replace label Replace\ ┘;
#X obj 2236 617 r mouseenter_Replace\ ┘;
#X msg 2236 649 Left\ (negative)\ value\ means\ to\ replace\ the\ volume\ envelope\ of\ main\ sample\ with\ mod\ sample., f 42;
#X obj 2236 795 show_hint;
#X obj 2236 720 r mouseenter_Replace\ ┘;
#X msg 2236 752 Right\ (positive)\ value\ means\ to\ multiply\ the\ volume\ envelope\ of\ main\ sample\ by\ mod\ sample., f 42;
#X obj 2239 905 show_hint;
#X msg 2236 372 \; label_vocoder_channels label -\ Vocoder\ Channels;
#X obj 2239 829 r mouseenter_-\ Vocoder\ Channels;
#X msg 2239 861 More\ channels\ capture\ the\ timbre\ better\ but\ consume\ more\ CPU\ resources., f 42;
#X obj 2556 573 show_hint;
#X msg 2556 51 \; label_filters label Filters;
#X obj 2556 498 r mouseenter_Comb;
#X msg 2556 530 Resonates\ formants\ and\ weakens\ other\ frequency components., f 42;
#X obj 2556 683 show_hint;
#X obj 2556 608 r mouseenter_Lowpass;
#X msg 2556 640 A\ basic\ one-pole\ filter\ to\ weaken\ high\ frequencies., f 42;
#X obj 2556 782 show_hint;
#X obj 2556 720 r mouseenter_-\ Mix;
#X msg 2556 752 Portion\ of\ the\ wet\ and\ dry\ signals., f 42;
#X obj 2556 889 show_hint;
#X obj 2556 819 r mouseenter_-\ Power;
#X msg 2556 851 Strength\ of\ resonance.\ A\ value\ too\ high\ will\ cause\ peak\ clipping., f 42;
#X obj 2556 992 show_hint;
#X obj 2556 922 r mouseenter_-\ Octave\ Doubler;
#X msg 2556 954 Rises\ the\ pitch\ by\ one\ octave\ by\ filtering\ instead\ of\ stretching., f 42;
#X obj 2559 1095 show_hint;
#X obj 2559 1019 r mouseenter_-\ Freq;
#X msg 2559 1051 Cutoff\ frequency\ as\ a\ multiple\ of\ the\ note\ pitch., f 42;
#X obj 2556 1205 show_hint;
#X obj 2556 1129 r mouseenter_-\ Pluck;
#X msg 2556 1161 Attenuates\ high\ frequencies\ faster\ to\ simulate\ a\ plucked\ string., f 42;
#X connect 0 0 1 0;
#X connect 1 0 4 0;
#X connect 1 1 2 0;
#X connect 4 0 3 0;
#X connect 5 0 6 0;
#X connect 7 0 84 0;
#X connect 7 0 8 0;
#X connect 7 0 9 0;
#X connect 7 0 10 0;
#X connect 7 0 11 0;
#X connect 13 0 12 0;
#X connect 15 0 14 0;
#X connect 18 0 88 0;
#X connect 18 0 91 0;
#X connect 18 0 95 0;
#X connect 18 0 20 0;
#X connect 18 0 21 0;
#X connect 18 0 19 0;
#X connect 18 0 99 0;
#X connect 18 0 102 0;
#X connect 18 0 22 0;
#X connect 18 0 26 0;
#X connect 18 0 24 0;
#X connect 18 0 25 0;
#X connect 18 0 23 0;
#X connect 27 0 29 0;
#X connect 27 0 28 0;
#X connect 27 0 73 0;
#X connect 27 0 74 0;
#X connect 27 0 30 0;
#X connect 31 0 33 0;
#X connect 31 0 39 0;
#X connect 31 0 65 0;
#X connect 31 0 34 0;
#X connect 31 0 123 0;
#X connect 31 0 35 0;
#X connect 31 0 36 0;
#X connect 31 0 37 0;
#X connect 31 0 38 0;
#X connect 31 0 40 0;
#X connect 31 0 41 0;
#X connect 31 0 42 0;
#X connect 32 0 44 0;
#X connect 32 0 43 0;
#X connect 32 0 163 0;
#X connect 45 0 48 0;
#X connect 45 0 49 0;
#X connect 45 0 50 0;
#X connect 45 0 51 0;
#X connect 45 0 52 0;
#X connect 45 0 170 0;
#X connect 45 0 71 0;
#X connect 45 0 177 0;
#X connect 46 0 181 0;
#X connect 46 0 53 0;
#X connect 46 0 54 0;
#X connect 46 0 55 0;
#X connect 46 0 56 0;
#X connect 46 0 57 0;
#X connect 46 0 58 0;
#X connect 46 0 59 0;
#X connect 47 0 147 0;
#X connect 47 0 60 0;
#X connect 47 0 61 0;
#X connect 47 0 62 0;
#X connect 47 0 63 0;
#X connect 47 0 64 0;
#X connect 47 0 146 0;
#X connect 67 0 69 0;
#X connect 68 0 70 0;
#X connect 69 0 68 1;
#X connect 70 0 66 0;
#X connect 75 0 72 0;
#X connect 76 0 75 0;
#X connect 77 0 13 0;
#X connect 78 0 15 0;
#X connect 79 0 129 0;
#X connect 80 0 130 0;
#X connect 81 0 5 0;
#X connect 82 0 68 0;
#X connect 85 0 86 0;
#X connect 86 0 83 0;
#X connect 89 0 112 0;
#X connect 92 0 93 0;
#X connect 93 0 90 0;
#X connect 96 0 125 0;
#X connect 97 0 125 0;
#X connect 100 0 126 0;
#X connect 103 0 127 0;
#X connect 105 0 106 0;
#X connect 106 0 104 0;
#X connect 108 0 109 0;
#X connect 109 0 107 0;
#X connect 111 0 128 0;
#X connect 112 0 87 0;
#X connect 114 0 115 0;
#X connect 115 0 113 0;
#X connect 117 0 118 0;
#X connect 118 0 116 0;
#X connect 120 0 121 0;
#X connect 121 0 119 0;
#X connect 124 0 131 0;
#X connect 125 0 94 0;
#X connect 126 0 98 0;
#X connect 127 0 101 0;
#X connect 128 0 110 0;
#X connect 129 0 16 0;
#X connect 130 0 17 0;
#X connect 131 0 122 0;
#X connect 133 0 134 0;
#X connect 134 0 132 0;
#X connect 136 0 144 0;
#X connect 137 0 144 0;
#X connect 139 0 140 0;
#X connect 140 0 138 0;
#X connect 142 0 143 0;
#X connect 143 0 141 0;
#X connect 144 0 135 0;
#X connect 148 0 152 0;
#X connect 149 0 152 0;
#X connect 150 0 152 0;
#X connect 151 0 152 0;
#X connect 152 0 145 0;
#X connect 153 0 155 0;
#X connect 155 0 154 0;
#X connect 157 0 158 0;
#X connect 158 0 156 0;
#X connect 160 0 161 0;
#X connect 161 0 159 0;
#X connect 164 0 165 0;
#X connect 165 0 162 0;
#X connect 167 0 168 0;
#X connect 168 0 166 0;
#X connect 171 0 172 0;
#X connect 172 0 169 0;
#X connect 174 0 175 0;
#X connect 175 0 173 0;
#X connect 178 0 179 0;
#X connect 179 0 176 0;
#X connect 182 0 183 0;
#X connect 183 0 180 0;
#X connect 185 0 186 0;
#X connect 186 0 184 0;
#X connect 188 0 189 0;
#X connect 189 0 187 0;
#X connect 191 0 192 0;
#X connect 192 0 190 0;
#X connect 194 0 195 0;
#X connect 195 0 193 0;
#X connect 197 0 198 0;
#X connect 198 0 196 0;
#X connect 200 0 201 0;
#X connect 201 0 199 0;
